<svg width="375" height="504" xmlns="http://www.w3.org/2000/svg" xml:space="preserve" enable-background="new 0 0 1024 512" version="1.1">

 <g>
  <title>Layer 1</title>
  <path id="svg_1" d="m93.67,491.81c9.56,0 17.33,-7.69 17.33,-17.14c0,-9.46 -7.77,-17.15 -17.33,-17.15c-9.57,0 -17.34,7.69 -17.34,17.15c0,9.45 7.77,17.14 17.34,17.14zm0,-32.29c8.43,0 15.31,6.79 15.31,15.15c0,8.34 -6.88,15.14 -15.31,15.14c-8.44,0 -15.32,-6.8 -15.32,-15.14c0,-8.35 6.88,-15.15 15.32,-15.15zm0,22.15c3.9,0 7.07,-3.15 7.07,-7c0,-3.86 -3.17,-7.01 -7.07,-7.01c-3.91,0 -7.08,3.15 -7.08,7.01c0,3.85 3.17,7 7.08,7zm0,-12c2.79,0 5.05,2.23 5.05,5c0,2.76 -2.26,4.99 -5.05,4.99c-2.8,0 -5.06,-2.23 -5.06,-4.99c0,-2.77 2.26,-5 5.06,-5zm0,9.06c2.27,0 4.12,-1.83 4.12,-4.08s-1.85,-4.08 -4.12,-4.08c-2.28,0 -4.13,1.83 -4.13,4.08s1.85,4.08 4.13,4.08zm0,-6.14c1.15,0 2.09,0.94 2.09,2.08c0,1.14 -0.94,2.07 -2.09,2.07c-1.16,0 -2.1,-0.93 -2.1,-2.07c0,-1.14 0.94,-2.08 2.1,-2.08zm-25.2,17.08c0.56,0 1,-0.45 1,-1l0,-27.45c0,-0.54 -0.44,-0.99 -1,-0.99l-32.8,0c-0.54,0 -1,0.43 -1,0.99l0,27.46c0,0.54 0.44,0.99 1,0.99l32.8,0zm-31.79,-2l0,-25.44l9.78,0l0,3.1l-1.8,0c-0.55,0 -1,0.43 -1,0.99l0,3.27l-3.58,0c-0.55,0 -1.01,0.44 -1.01,1l0,12.76c0,0.54 0.45,0.99 1.01,0.99l23.98,0c0.57,0 1.01,-0.45 0.98,-0.99l0,-12.76c0,-0.54 -0.44,-1 -1.01,-1l-3.57,0l0,-3.27c0,-0.54 -0.45,-0.99 -1.01,-0.99l-1.58,0l0,-3.1l9.58,0l0,25.44l-30.77,0zm11.82,-25.44l7.38,0l0,4.09c0,0.54 0.44,0.99 1,0.99l1.58,0l0,3.28c0,0.54 0.45,0.99 1.01,0.99l3.57,0l0,10.76l-21.96,0l0,-10.76l3.61,0c0.55,0 1,-0.44 1,-0.99l0,-3.28l1.81,0c0.54,0 1,-0.43 1,-0.99l0,-4.09zm-10.11,1.97l0,2.53l3.37,0l0,-2.53l-3.37,0zm23.59,0l0,2.53l3.37,0l0,-2.53l-3.37,0zm-52.51,29.61c5.87,0 10.64,-4.72 10.63,-10.52l0,-18.58c0,-0.54 -0.44,-0.99 -1.01,-0.99l-1.49,0l0,-8.73c0,-0.54 -0.44,-0.99 -1,-0.99l-14.25,0c-0.55,0 -1.01,0.44 -1.01,0.99l0,8.73l-1.34,0l0,24.36c1.77,3.4 5.35,5.73 9.47,5.73zm-8.61,-28.1l1.49,0l14.25,0l1.49,0l0,17.56c0,4.69 -3.86,8.52 -8.62,8.52c-4.74,0 -8.61,-3.81 -8.61,-8.52l0,-17.56zm2.49,-2.01l0,-7.71l12.24,0l0,7.71l-12.24,0zm6.12,24.67c3.43,0 6.22,-2.76 6.21,-6.13c0,-3.38 -2.78,-6.14 -6.21,-6.14c-3.41,0 -6.2,2.75 -6.2,6.14c0,3.37 2.77,6.13 6.2,6.13zm0,-10.28c2.32,0 4.2,1.85 4.19,4.13c0,2.28 -1.88,4.14 -4.19,4.14c-2.3,0 -4.18,-1.86 -4.18,-4.14s1.88,-4.13 4.18,-4.13zm-3.4,-19.24l0,2l2.18,0l0,-2l-2.18,0zm4.63,0l0,2l2.17,0l0,-2l-2.17,0zm51.09,43.93c-0.33,0.33 -0.38,0.82 -0.16,1.22l2.35,0c-0.18,-0.36 -0.39,-0.72 -0.63,-1.05c-0.36,-0.53 -1.12,-0.6 -1.56,-0.17zm203.88,-10.97c9.56,0 17.33,-7.69 17.33,-17.14c0,-9.46 -7.77,-17.15 -17.33,-17.15c-9.57,0 -17.34,7.69 -17.34,17.15c0,9.45 7.77,17.14 17.34,17.14zm0,-32.29c8.43,0 15.31,6.79 15.31,15.15c0,8.34 -6.88,15.14 -15.31,15.14c-8.44,0 -15.32,-6.8 -15.32,-15.14c0,-8.35 6.88,-15.15 15.32,-15.15zm0,22.15c3.9,0 7.07,-3.15 7.07,-7c0,-3.86 -3.17,-7.01 -7.07,-7.01c-3.91,0 -7.08,3.15 -7.08,7.01c0,3.85 3.17,7 7.08,7zm0,-12c2.79,0 5.05,2.23 5.05,5c0,2.76 -2.26,4.99 -5.05,4.99c-2.8,0 -5.06,-2.23 -5.06,-4.99c0,-2.77 2.26,-5 5.06,-5zm0,9.06c2.27,0 4.12,-1.83 4.12,-4.08s-1.85,-4.08 -4.12,-4.08c-2.28,0 -4.13,1.83 -4.13,4.08s1.85,4.08 4.13,4.08zm0,-6.14c1.15,0 2.09,0.94 2.09,2.08c0,1.14 -0.94,2.07 -2.09,2.07c-1.16,0 -2.1,-0.93 -2.1,-2.07c0,-1.14 0.94,-2.08 2.1,-2.08zm-25.2,17.08c0.56,0 1,-0.45 1,-1l0,-27.45c0,-0.54 -0.44,-0.99 -1,-0.99l-32.8,0c-0.54,0 -1,0.43 -1,0.99l0,27.46c0,0.54 0.44,0.99 1,0.99l32.8,0zm-31.79,-2l0,-25.44l9.78,0l0,3.1l-1.8,0c-0.55,0 -1,0.43 -1,0.99l0,3.27l-3.58,0c-0.55,0 -1.01,0.44 -1.01,1l0,12.76c0,0.54 0.45,0.99 1.01,0.99l23.98,0c0.57,0 1.01,-0.45 0.98,-0.99l0,-12.76c0,-0.54 -0.44,-1 -1.01,-1l-3.57,0l0,-3.27c0,-0.54 -0.45,-0.99 -1.01,-0.99l-1.58,0l0,-3.1l9.58,0l0,25.44l-30.77,0zm11.82,-25.44l7.38,0l0,4.09c0,0.54 0.44,0.99 1,0.99l1.58,0l0,3.28c0,0.54 0.45,0.99 1.01,0.99l3.57,0l0,10.76l-21.96,0l0,-10.76l3.61,0c0.55,0 1,-0.44 1,-0.99l0,-3.28l1.81,0c0.54,0 1,-0.43 1,-0.99l0,-4.09zm-10.11,1.97l0,2.53l3.37,0l0,-2.53l-3.37,0zm23.59,0l0,2.53l3.37,0l0,-2.53l-3.37,0zm-77.31,0.75c0.57,0 1.02,-0.46 1.01,-1c0,-0.54 -0.44,-0.99 -1.01,-0.99l-4.8,0l0,-0.61c0,-0.55 -0.44,-1 -1,-1l-0.62,0l0,-4.75c0,-0.54 -0.45,-0.99 -1.01,-0.99c-0.55,0 -1,0.44 -1,0.99l0,4.75l-2.03,0l0,-4.75c0,-0.54 -0.44,-0.99 -1,-0.99c-0.55,0 -1.01,0.44 -1.01,0.99l0,4.75l-2.04,0l0,-4.75c0,-0.54 -0.44,-0.99 -1,-0.99c-0.55,0 -1.01,0.44 -1.01,0.99l0,4.75l-2.04,0l0,-4.75c0,-0.54 -0.44,-0.99 -1,-0.99c-0.55,0 -1.01,0.44 -1.01,0.99l0,4.75l-2.02,0l0,-4.75c0,-0.54 -0.44,-0.99 -1.01,-0.99c-0.54,0 -1,0.44 -1,0.99l0,4.75l-2.04,0l0,-4.75c0,-0.54 -0.44,-0.99 -1.01,-0.99c-0.54,0 -1,0.44 -1,0.99l0,4.75l-0.62,0c-0.55,0 -1.01,0.44 -1.01,1l0,0.61l-4.38,0c-0.55,0 -1.01,0.44 -1.01,0.99c0,0.54 0.44,1 1.01,1l4.38,0l0,2.01l-4.38,0c-0.55,0 -1.01,0.44 -1.01,1c0,0.54 0.44,0.99 1.01,0.99l4.38,0l0,2.02l-4.38,0c-0.55,0 -1.01,0.44 -1.01,0.99c0,0.54 0.44,1 1.01,1l4.38,0l0,2l-4.38,0c-0.55,0 -1.01,0.44 -1.01,0.99c0,0.54 0.44,1 1.01,1l4.38,0l0,2.01l-4.38,0c-0.55,0 -1.01,0.44 -1.01,1c0,0.54 0.44,0.99 1.01,0.99l4.38,0l0,2.02l-4.38,0c-0.55,0 -1.01,0.44 -1.01,0.99c0,0.54 0.44,0.99 1.01,0.99l4.38,0l0,0.6c0,0.54 0.45,1 1.01,1l0.62,0l0,4.34c0,0.54 0.44,0.99 1,0.99c0.57,0 1.01,-0.44 1.01,-0.99l0,-4.34l2.04,0l0,4.34c0,0.54 0.44,0.99 1,0.99c0.55,0 1.01,-0.44 1.01,-0.99l0,-4.34l2.02,0l0,4.34c0,0.54 0.45,0.99 1.01,0.99c0.56,0 1.02,-0.44 1,-0.99l0,-4.34l2.04,0l0,4.34c0,0.54 0.45,0.99 1.01,0.99s1,-0.44 1,-0.99l0,-4.34l2.04,0l0,4.34c0,0.54 0.45,0.99 1.01,0.99c0.54,0 1,-0.44 1,-0.99l0,-4.34l2.03,0l0,4.34c0,0.54 0.44,0.99 1,0.99s1.02,-0.44 1.01,-0.99l0,-4.34l0.62,0c0.56,0 1,-0.44 1,-1l0,-0.6l4.8,0c0.57,0 1.02,-0.45 1.01,-0.99c0,-0.54 -0.44,-0.99 -1.01,-0.99l-4.8,0l0,-2.02l4.8,0c0.57,0 1.02,-0.45 1.01,-0.99c0,-0.54 -0.44,-1 -1.01,-1l-4.8,0l0,-2.01l4.8,0c0.57,0 1.02,-0.44 1.01,-1c0,-0.54 -0.44,-0.99 -1.01,-0.99l-4.8,0l0,-2l4.8,0c0.57,0 1.02,-0.46 1.01,-1c0,-0.54 -0.44,-0.99 -1.01,-0.99l-4.8,0l0,-2.02l4.8,0c0.57,0 1.02,-0.45 1.01,-0.99c0,-0.54 -0.44,-1 -1.01,-1l-4.8,0l0,-2.01l4.8,0zm-28.25,19.6l0,-21.21l21.44,0l0,21.21l-21.44,0zm53.05,9.26c5.87,0 10.64,-4.72 10.63,-10.52l0,-18.58c0,-0.54 -0.44,-0.99 -1.01,-0.99l-1.49,0l0,-8.73c0,-0.54 -0.44,-0.99 -1,-0.99l-14.25,0c-0.55,0 -1.01,0.44 -1.01,0.99l0,8.73l-1.5,0c-0.55,0 -1.01,0.44 -1.01,0.99l0,18.58c0,5.8 4.78,10.52 10.64,10.52zm-8.61,-28.1l1.49,0l14.25,0l1.49,0l0,17.56c0,4.69 -3.86,8.52 -8.62,8.52c-4.74,0 -8.61,-3.81 -8.61,-8.52l0,-17.56zm2.49,-2.01l0,-7.71l12.24,0l0,7.71l-12.24,0zm6.12,24.67c3.43,0 6.22,-2.76 6.21,-6.13c0,-3.38 -2.78,-6.14 -6.21,-6.14c-3.41,0 -6.2,2.75 -6.2,6.14c0,3.37 2.77,6.13 6.2,6.13zm0,-10.28c2.32,0 4.2,1.85 4.19,4.13c0,2.28 -1.88,4.14 -4.19,4.14c-2.3,0 -4.18,-1.86 -4.18,-4.14s1.88,-4.13 4.18,-4.13zm-3.4,-19.24l0,2l2.18,0l0,-2l-2.18,0zm4.63,0l0,2l2.17,0l0,-2l-2.17,0zm51.09,43.93c-0.33,0.33 -0.38,0.82 -0.16,1.22l2.35,0c-0.18,-0.36 -0.39,-0.72 -0.63,-1.05c-0.36,-0.53 -1.12,-0.6 -1.56,-0.17zm94.88,-37.83c0.57,0 1.02,-0.46 1.01,-1c0,-0.54 -0.44,-0.99 -1.01,-0.99l-4.8,0l0,-0.61c0,-0.55 -0.44,-1 -1,-1l-0.62,0l0,-4.75c0,-0.54 -0.45,-0.99 -1.01,-0.99c-0.55,0 -1,0.44 -1,0.99l0,4.75l-2.03,0l0,-4.75c0,-0.54 -0.44,-0.99 -1,-0.99c-0.55,0 -1.01,0.44 -1.01,0.99l0,4.75l-2.04,0l0,-4.75c0,-0.54 -0.44,-0.99 -1,-0.99c-0.55,0 -1.01,0.44 -1.01,0.99l0,4.75l-2.04,0l0,-4.75c0,-0.54 -0.44,-0.99 -1,-0.99c-0.55,0 -1.01,0.44 -1.01,0.99l0,4.75l-2.02,0l0,-4.75c0,-0.54 -0.44,-0.99 -1.01,-0.99c-0.54,0 -1,0.44 -1,0.99l0,4.75l-2.04,0l0,-4.75c0,-0.54 -0.44,-0.99 -1.01,-0.99c-0.54,0 -1,0.44 -1,0.99l0,4.75l-0.62,0c-0.55,0 -1.01,0.44 -1.01,1l0,0.61l-4.38,0c-0.55,0 -1.01,0.44 -1.01,0.99c0,0.54 0.44,1 1.01,1l4.38,0l0,2.01l-4.38,0c-0.55,0 -1.01,0.44 -1.01,1c0,0.54 0.44,0.99 1.01,0.99l4.38,0l0,2.02l-4.38,0c-0.55,0 -1.01,0.44 -1.01,0.99c0,0.54 0.44,1 1.01,1l4.38,0l0,2l-4.38,0c-0.55,0 -1.01,0.44 -1.01,0.99c0,0.54 0.44,1 1.01,1l4.38,0l0,2.01l-4.38,0c-0.55,0 -1.01,0.44 -1.01,1c0,0.54 0.44,0.99 1.01,0.99l4.38,0l0,2.02l-4.38,0c-0.55,0 -1.01,0.44 -1.01,0.99c0,0.54 0.44,0.99 1.01,0.99l4.38,0l0,0.6c0,0.54 0.45,1 1.01,1l0.62,0l0,4.34c0,0.54 0.44,0.99 1,0.99c0.57,0 1.01,-0.44 1.01,-0.99l0,-4.34l2.04,0l0,4.34c0,0.54 0.44,0.99 1,0.99c0.55,0 1.01,-0.44 1.01,-0.99l0,-4.34l2.02,0l0,4.34c0,0.54 0.45,0.99 1.01,0.99s1.02,-0.44 1,-0.99l0,-4.34l2.04,0l0,4.34c0,0.54 0.45,0.99 1.01,0.99s1,-0.44 1,-0.99l0,-4.34l2.04,0l0,4.34c0,0.54 0.45,0.99 1.01,0.99c0.54,0 1,-0.44 1,-0.99l0,-4.34l2.03,0l0,4.34c0,0.54 0.44,0.99 1,0.99s1.02,-0.44 1.01,-0.99l0,-4.34l0.62,0c0.56,0 1,-0.44 1,-1l0,-0.6l4.8,0c0.57,0 1.02,-0.45 1.01,-0.99c0,-0.54 -0.44,-0.99 -1.01,-0.99l-4.8,0l0,-2.02l4.8,0c0.57,0 1.02,-0.45 1.01,-0.99c0,-0.54 -0.44,-1 -1.01,-1l-4.8,0l0,-2.01l4.8,0c0.57,0 1.02,-0.44 1.01,-1c0,-0.54 -0.44,-0.99 -1.01,-0.99l-4.8,0l0,-2l4.8,0c0.57,0 1.02,-0.46 1.01,-1c0,-0.54 -0.44,-0.99 -1.01,-0.99l-4.8,0l0,-2.02l4.8,0c0.57,0 1.02,-0.45 1.01,-0.99c0,-0.54 -0.44,-1 -1.01,-1l-4.8,0l0,-2.01l4.8,0zm-28.25,19.6l0,-21.21l21.44,0l0,21.21l-21.44,0zm53.05,9.26c5.87,0 10.64,-4.72 10.63,-10.52l0,-18.58c0,-0.54 -0.44,-0.99 -1.01,-0.99l-1.49,0l0,-8.73c0,-0.54 -0.44,-0.99 -1,-0.99l-14.25,0c-0.55,0 -1.01,0.44 -1.01,0.99l0,8.73l-1.5,0c-0.55,0 -1.01,0.44 -1.01,0.99l0,18.58c0,5.8 4.78,10.52 10.64,10.52zm-8.61,-28.1l1.49,0l14.25,0l1.49,0l0,17.56c0,4.69 -3.86,8.52 -8.62,8.52c-4.74,0 -8.61,-3.81 -8.61,-8.52l0,-17.56zm2.49,-2.01l0,-7.71l12.24,0l0,7.71l-12.24,0zm6.12,24.67c3.43,0 6.22,-2.76 6.21,-6.13c0,-3.38 -2.78,-6.14 -6.21,-6.14c-3.41,0 -6.2,2.75 -6.2,6.14c0,3.37 2.77,6.13 6.2,6.13zm0,-10.28c2.32,0 4.2,1.85 4.19,4.13c0,2.28 -1.88,4.14 -4.19,4.14c-2.3,0 -4.18,-1.86 -4.18,-4.14s1.88,-4.13 4.18,-4.13zm-3.4,-19.24l0,2l2.18,0l0,-2l-2.18,0zm4.63,0l0,2l2.17,0l0,-2l-2.17,0z" fill="#B7C7C8" clip-rule="evenodd" fill-rule="evenodd"/>
  <path id="svg_2" d="m51.67,396.81c9.56,0 17.33,-7.69 17.33,-17.14c0,-9.46 -7.77,-17.15 -17.33,-17.15c-9.57,0 -17.34,7.69 -17.34,17.15c0,9.45 7.77,17.14 17.34,17.14zm0,-32.29c8.43,0 15.31,6.79 15.31,15.15c0,8.34 -6.88,15.14 -15.31,15.14c-8.44,0 -15.32,-6.8 -15.32,-15.14c0,-8.35 6.88,-15.15 15.32,-15.15zm0,22.15c3.9,0 7.07,-3.15 7.07,-7c0,-3.86 -3.17,-7.01 -7.07,-7.01c-3.91,0 -7.08,3.15 -7.08,7.01c0,3.85 3.17,7 7.08,7zm0,-12c2.79,0 5.05,2.23 5.05,5c0,2.76 -2.26,4.99 -5.05,4.99c-2.8,0 -5.06,-2.23 -5.06,-4.99c0,-2.77 2.26,-5 5.06,-5zm0,9.06c2.27,0 4.12,-1.83 4.12,-4.08s-1.85,-4.08 -4.12,-4.08c-2.28,0 -4.13,1.83 -4.13,4.08s1.85,4.08 4.13,4.08zm0,-6.14c1.15,0 2.09,0.94 2.09,2.08c0,1.14 -0.94,2.07 -2.09,2.07c-1.16,0 -2.1,-0.93 -2.1,-2.07c0,-1.14 0.94,-2.08 2.1,-2.08zm-45.17,-10.36l7.38,0l0,4.09c0,0.54 0.44,0.99 1,0.99l1.58,0l0,3.28c0,0.54 0.45,0.99 1.01,0.99l3.57,0l0,10.76l-21.04,0l0,2l22.06,0c0.57,0 1.01,-0.45 0.98,-0.99l0,-12.76c0,-0.54 -0.44,-1 -1.01,-1l-3.57,0l0,-3.27c0,-0.54 -0.45,-0.99 -1.01,-0.99l-1.58,0l0,-3.1l9.58,0l0,25.44l-25.45,0l0,2l26.47,0c0.56,0 1,-0.45 1,-1l0,-27.45c0,-0.54 -0.44,-0.99 -1,-0.99l-26.47,-0.01l0,2.01l4.46,0l0,3.1l-1.8,0c-0.55,0 -1,0.43 -1,0.99l0,3.27l-1.66,0l0,1.99l2.69,0c0.55,0 1,-0.44 1,-0.99l0,-3.28l1.81,0c0.54,0 1,-0.43 1,-0.99l0,-4.09zm13.48,1.97l0,2.53l3.37,0l0,-2.53l-3.37,0zm-2.41,50.25c2.93,2.89 2.93,7.6 0.02,10.49l-8.03,7.94c-2.59,2.56 -6.64,2.85 -9.56,0.87l0,2.32c3.56,1.74 8.02,1.15 10.98,-1.78l8.02,-7.93c3.49,-3.43 3.71,-8.88 0.68,-12.58l0.76,-0.75c2.78,-2.75 3.07,-7.02 0.91,-10.08c-0.36,-0.53 -1.12,-0.6 -1.56,-0.17c-0.36,0.36 -0.39,0.9 -0.11,1.31c1.62,2.29 1.39,5.48 -0.68,7.52l-0.75,0.75c-3.73,-3 -9.24,-2.77 -12.72,0.67l-5.53,5.46l0,2.83l6.95,-6.87c2.92,-2.9 7.7,-2.9 10.62,0zm-5.88,5.81c0.38,0.4 1.03,0.4 1.43,0l1.54,-1.52c0.4,-0.39 0.4,-1.02 0,-1.41c-0.4,-0.4 -1.03,-0.4 -1.43,0l-1.54,1.52c-0.4,0.39 -0.4,1.02 0,1.41zm44.44,16.74l0,-7.19c0,-6.9 -5.68,-12.51 -12.65,-12.51l-3.3,0l0,-10l22.97,0l0,29.7l-7.02,0zm-15.95,-17.72l3.3,0c5.85,0 10.62,4.71 10.62,10.51l0,7.21l-13.92,0l0,-17.72zm23.99,19.72c0.54,0 1,-0.44 1,-0.99l0,-31.7c0,-0.54 -0.44,-1 -1,-1l-24.99,0c-0.55,0 -1.01,0.44 -1.01,1l0,11.98l0,19.72c0,0.54 0.45,0.99 1.01,0.99l15.93,0l9.06,0zm-15.89,-25.15l-0.22,0.89c0.27,0.15 0.8,0.28 1.33,0.28c1.28,0 1.89,-0.66 1.89,-1.44c0,-0.64 -0.38,-1.06 -1.21,-1.37c-0.61,-0.23 -0.87,-0.36 -0.87,-0.66c0,-0.25 0.22,-0.45 0.68,-0.45c0.45,0 0.78,0.13 0.97,0.22l0.24,-0.85c-0.28,-0.12 -0.67,-0.23 -1.2,-0.23c-1.11,0 -1.77,0.6 -1.77,1.39c0,0.67 0.5,1.09 1.28,1.36c0.57,0.2 0.79,0.36 0.79,0.65c0,0.3 -0.25,0.5 -0.74,0.5c-0.45,0 -0.89,-0.15 -1.17,-0.29zm3.74,0l-0.22,0.89c0.26,0.15 0.8,0.28 1.33,0.28c1.28,0 1.89,-0.66 1.89,-1.44c0,-0.64 -0.38,-1.06 -1.21,-1.37c-0.61,-0.23 -0.87,-0.36 -0.87,-0.66c0,-0.25 0.22,-0.45 0.68,-0.45c0.45,0 0.78,0.13 0.97,0.22l0.24,-0.85c-0.28,-0.12 -0.67,-0.23 -1.2,-0.23c-1.11,0 -1.77,0.6 -1.77,1.39c0,0.67 0.5,1.09 1.28,1.36c0.56,0.2 0.79,0.36 0.79,0.65c0,0.3 -0.26,0.5 -0.74,0.5c-0.45,0 -0.89,-0.15 -1.17,-0.29zm3.71,-3.48l0,4.53c0.27,0.04 0.65,0.07 1.2,0.07c0.91,0 1.67,-0.19 2.15,-0.6c0.46,-0.38 0.79,-0.99 0.79,-1.87c0,-0.82 -0.3,-1.39 -0.79,-1.74c-0.44,-0.33 -1.02,-0.49 -1.9,-0.49c-0.55,0 -1.07,0.04 -1.45,0.1zm1.08,3.77l0,-3.03c0.09,-0.02 0.23,-0.04 0.47,-0.04c0.9,0 1.46,0.5 1.46,1.46c0,1.11 -0.62,1.62 -1.58,1.62c-0.13,0 -0.26,0 -0.35,-0.01zm166.86,-22.33c-9.57,0 -17.34,-7.69 -17.34,-17.14c0,-9.46 7.77,-17.15 17.34,-17.15c9.56,0 17.33,7.69 17.33,17.15c0,9.45 -7.77,17.14 -17.33,17.14zm0,-32.29c-8.44,0 -15.32,6.8 -15.32,15.15c0,8.34 6.88,15.14 15.32,15.14c8.43,0 15.31,-6.8 15.31,-15.14c0,-8.36 -6.88,-15.15 -15.31,-15.15zm0,19.21c-2.28,0 -4.13,-1.83 -4.13,-4.08s1.85,-4.08 4.13,-4.08c2.27,0 4.12,1.83 4.12,4.08s-1.85,4.08 -4.12,4.08zm0,-6.14c-1.16,0 -2.1,0.94 -2.1,2.08c0,1.14 0.94,2.07 2.1,2.07c1.15,0 2.09,-0.93 2.09,-2.07c0,-1.14 -0.94,-2.08 -2.09,-2.08zm0,9.08c-3.91,0 -7.08,-3.15 -7.08,-7c0,-3.86 3.17,-7.01 7.08,-7.01c3.9,0 7.07,3.15 7.07,7.01c0,3.85 -3.17,7 -7.07,7zm0,-12c-2.8,0 -5.06,2.23 -5.06,5c0,2.76 2.26,4.99 5.06,4.99c2.79,0 5.05,-2.23 5.05,-4.99c0,-2.77 -2.26,-5 -5.05,-5zm-55.28,-5.47l0,2.53l3.37,0l0,-2.53l-3.37,0zm23.59,0l0,2.53l3.37,0l0,-2.53l-3.37,0zm6.49,25.47c0.56,0 1,-0.45 1,-1l0,-27.45c0,-0.54 -0.44,-0.99 -1,-0.99l-32.8,0c-0.54,0 -1,0.43 -1,0.99l0,27.46c0,0.54 0.44,0.99 1,0.99l32.8,0zm-31.79,-2l0,-25.44l9.78,0l0,3.1l-1.8,0c-0.55,0 -1,0.43 -1,0.99l0,3.27l-3.58,0c-0.55,0 -1.01,0.44 -1.01,1l0,12.76c0,0.54 0.45,0.99 1.01,0.99l23.98,0c0.57,0 1.01,-0.45 0.98,-0.99l0,-12.76c0,-0.54 -0.44,-1 -1.01,-1l-3.57,0l0,-3.27c0,-0.54 -0.45,-0.99 -1.01,-0.99l-1.58,0l0,-3.1l9.58,0l0,25.44l-30.77,0zm11.82,-25.44l7.38,0l0,4.09c0,0.54 0.44,0.99 1,0.99l1.58,0l0,3.28c0,0.54 0.45,0.99 1.01,0.99l3.57,0l0,10.76l-21.96,0l0,-10.76l3.61,0c0.55,0 1,-0.44 1,-0.99l0,-3.28l1.81,0c0.54,0 1,-0.43 1,-0.99l0,-4.09zm-63.83,2.72c0.57,0 1.02,-0.46 1.01,-1c0,-0.54 -0.44,-0.99 -1.01,-0.99l-4.8,0l0,-0.61c0,-0.55 -0.44,-1 -1,-1l-0.62,0l0,-4.75c0,-0.54 -0.45,-0.99 -1.01,-0.99c-0.55,0 -1,0.44 -1,0.99l0,4.75l-2.03,0l0,-4.75c0,-0.54 -0.44,-0.99 -1,-0.99c-0.55,0 -1.01,0.44 -1.01,0.99l0,4.75l-2.04,0l0,-4.75c0,-0.54 -0.44,-0.99 -1,-0.99c-0.55,0 -1.01,0.44 -1.01,0.99l0,4.75l-2.04,0l0,-4.75c0,-0.54 -0.44,-0.99 -1,-0.99c-0.55,0 -1.01,0.44 -1.01,0.99l0,4.75l-2.02,0l0,-4.75c0,-0.54 -0.44,-0.99 -1.01,-0.99c-0.54,0 -1,0.44 -1,0.99l0,4.75l-2.04,0l0,-4.75c0,-0.54 -0.44,-0.99 -1.01,-0.99c-0.54,0 -1,0.44 -1,0.99l0,4.75l-0.62,0c-0.55,0 -1.01,0.44 -1.01,1l0,0.61l-4.38,0c-0.55,0 -1.01,0.44 -1.01,0.99c0,0.54 0.44,1 1.01,1l4.38,0l0,2.01l-4.38,0c-0.55,0 -1.01,0.44 -1.01,1c0,0.54 0.44,0.99 1.01,0.99l4.38,0l0,2.02l-4.38,0c-0.55,0 -1.01,0.44 -1.01,0.99c0,0.54 0.44,1 1.01,1l4.38,0l0,2l-4.38,0c-0.55,0 -1.01,0.44 -1.01,0.99c0,0.54 0.44,1 1.01,1l4.38,0l0,2.01l-4.38,0c-0.55,0 -1.01,0.44 -1.01,1c0,0.54 0.44,0.99 1.01,0.99l4.38,0l0,2.02l-4.38,0c-0.55,0 -1.01,0.44 -1.01,0.99c0,0.54 0.44,0.99 1.01,0.99l4.38,0l0,0.6c0,0.54 0.45,1 1.01,1l0.62,0l0,4.34c0,0.54 0.44,0.99 1,0.99c0.57,0 1.01,-0.44 1.01,-0.99l0,-4.34l2.04,0l0,4.34c0,0.54 0.44,0.99 1,0.99c0.55,0 1.01,-0.44 1.01,-0.99l0,-4.34l2.02,0l0,4.34c0,0.54 0.45,0.99 1.01,0.99c0.56,0 1.02,-0.44 1,-0.99l0,-4.34l2.04,0l0,4.34c0,0.54 0.45,0.99 1.01,0.99s1,-0.44 1,-0.99l0,-4.34l2.04,0l0,4.34c0,0.54 0.45,0.99 1.01,0.99c0.54,0 1,-0.44 1,-0.99l0,-4.34l2.03,0l0,4.34c0,0.54 0.44,0.99 1,0.99s1.02,-0.44 1.01,-0.99l0,-4.34l0.62,0c0.56,0 1,-0.44 1,-1l0,-0.6l4.8,0c0.57,0 1.02,-0.45 1.01,-0.99c0,-0.54 -0.44,-0.99 -1.01,-0.99l-4.8,0l0,-2.02l4.8,0c0.57,0 1.02,-0.45 1.01,-0.99c0,-0.54 -0.44,-1 -1.01,-1l-4.8,0l0,-2.01l4.8,0c0.57,0 1.02,-0.44 1.01,-1c0,-0.54 -0.44,-0.99 -1.01,-0.99l-4.8,0l0,-2l4.8,0c0.57,0 1.02,-0.46 1.01,-1c0,-0.54 -0.44,-0.99 -1.01,-0.99l-4.8,0l0,-2.02l4.8,0c0.57,0 1.02,-0.45 1.01,-0.99c0,-0.54 -0.44,-1 -1.01,-1l-4.8,0l0,-2.01l4.8,0zm-28.25,19.6l0,-21.21l21.44,0l0,21.21l-21.44,0zm53.05,3.82c3.43,0 6.22,-2.76 6.21,-6.13c0,-3.38 -2.78,-6.14 -6.21,-6.14c-3.41,0 -6.2,2.75 -6.2,6.14c0,3.37 2.77,6.13 6.2,6.13zm0,-10.28c2.32,0 4.2,1.85 4.19,4.13c0,2.28 -1.88,4.14 -4.19,4.14c-2.3,0 -4.18,-1.86 -4.18,-4.14s1.88,-4.13 4.18,-4.13zm-3.4,-19.24l0,2l2.18,0l0,-2l-2.18,0zm4.63,0l0,2l2.17,0l0,-2l-2.17,0zm-1.23,34.96c5.87,0 10.64,-4.72 10.63,-10.52l0,-18.58c0,-0.54 -0.44,-0.99 -1.01,-0.99l-1.49,0l0,-8.73c0,-0.54 -0.44,-0.99 -1,-0.99l-14.25,0c-0.55,0 -1.01,0.44 -1.01,0.99l0,8.73l-1.5,0c-0.55,0 -1.01,0.44 -1.01,0.99l0,18.58c0,5.8 4.78,10.52 10.64,10.52zm-8.61,-28.1l1.49,0l14.25,0l1.49,0l0,17.56c0,4.69 -3.86,8.52 -8.62,8.52c-4.74,0 -8.61,-3.81 -8.61,-8.52l0,-17.56zm2.49,-2.01l0,-7.71l12.24,0l0,7.71l-12.24,0zm-40.35,46.26l0,3.86l2.02,0l0,-3.86l-2.02,0zm3.48,0l0,3.86l2.03,0l0,-3.86l-2.03,0zm3.51,0l0,3.86l2.02,0l0,-3.86l-2.02,0zm3.48,0l0,3.86l2.03,0l0,-3.86l-2.03,0zm6.06,28.21c0.55,0 1.01,-0.44 1.01,-1l0,-11.43c0,-0.54 -0.45,-0.99 -1.01,-0.99l-0.16,0l0,-4.28l0.16,0c0.55,0 1.01,-0.44 1.01,-1l0,-12.32c0,-0.54 -0.45,-0.99 -1.01,-0.99l-17.81,0c-0.26,0 -0.51,0.1 -0.71,0.29l-6.56,6.49c-0.19,0.18 -0.29,0.44 -0.29,0.7l0,4.26c0,0.54 0.44,0.99 1,0.99l0.46,0l0,0.29l-0.46,0c-0.54,0 -1,0.44 -1,1l0,16.99c0,0.54 0.44,1 1,1l24.37,0zm-23.36,-2.01l0,-14.99l0.46,0c0.54,0 1,-0.44 1,-0.99l0,-2.3c0,-0.54 -0.44,-0.99 -1,-0.99l-0.46,0l0,-2.85l5.97,-5.89l16.37,0l0,10.32l-0.16,0c-0.55,0 -1.01,0.43 -1.01,0.99l0,6.28c0,0.55 0.45,1 1.01,1l0.16,0l0,9.42l-22.34,0zm44.91,-21.84l0,2l1.88,0l0,1.11l1.7,0l-0.01,-1.11l2.09,0l0,1.11l1.7,0l0,-1.11l2.08,0l0,1.11l1.7,0l0,-1.11l2.09,0l0,1.11l1.69,0l0,-1.11l1.88,0l0,-2l-16.8,0zm19.36,7.24c0.56,0 1,-0.45 0.99,-0.99l0,-8.49c0,-0.54 -0.44,-0.99 -1.01,-0.99l-21.91,0c-0.55,0 -1.01,0.43 -1.01,0.99l0,8.49c0,0.54 0.45,0.99 1.01,0.99l21.93,0zm-20.91,-2l0,-6.49l19.9,0l0,6.49l-19.9,0zm1.55,6.44l0,2l1.88,0l0,1.11l1.7,0l-0.01,-1.11l2.09,0l0,1.11l1.7,0l0,-1.11l2.08,0l0,1.11l1.7,0l0,-1.11l2.09,0l0,1.11l1.69,0l0,-1.11l1.88,0l0,-2l-16.8,0zm19.36,7.25c0.56,0 1,-0.45 0.99,-1l0,-8.49c0,-0.54 -0.44,-0.99 -1.01,-0.99l-21.91,0c-0.55,0 -1.01,0.44 -1.01,0.99l0,8.49c0,0.55 0.45,1 1.01,1l21.93,0zm-20.91,-2l0,-6.49l19.9,0l0,6.49l-19.9,0zm25.33,6.11c0.56,0 1.02,-0.45 1,-1.01l0,-28.41c0,-0.54 -0.44,-0.99 -1,-0.99l-30.77,0c-0.55,0 -1.01,0.44 -1.01,0.99l0,28.43c0,0.54 0.45,0.99 1.01,0.99l30.77,0zm-29.75,-2l0,-26.41l28.74,0l0,26.41l-28.74,0zm58.58,-15.1c0.38,0.4 1.03,0.4 1.43,0l1.54,-1.52c0.4,-0.39 0.4,-1.02 0,-1.41c-0.4,-0.4 -1.03,-0.4 -1.43,0l-1.54,1.52c-0.4,0.39 -0.4,1.02 0,1.41zm-14.19,14.03c3.71,3.67 9.77,3.67 13.48,0l8.02,-7.93c3.49,-3.43 3.71,-8.88 0.68,-12.58l0.76,-0.75c2.78,-2.75 3.07,-7.02 0.91,-10.08c-0.36,-0.53 -1.12,-0.6 -1.56,-0.17c-0.36,0.36 -0.39,0.9 -0.11,1.31c1.62,2.29 1.39,5.48 -0.68,7.52l-0.75,0.75c-3.73,-3 -9.24,-2.77 -12.72,0.67l-8.03,7.94c-3.72,3.66 -3.72,9.64 0,13.32zm20.07,-19.84c2.93,2.89 2.93,7.6 0.02,10.49l-8.03,7.94c-2.92,2.89 -7.7,2.89 -10.62,0c-2.93,-2.9 -2.93,-7.62 0,-10.51l8.01,-7.92c2.92,-2.9 7.7,-2.9 10.62,0zm30.71,-0.6l-0.22,0.89c0.27,0.15 0.8,0.28 1.33,0.28c1.28,0 1.89,-0.66 1.89,-1.44c0,-0.64 -0.38,-1.06 -1.21,-1.37c-0.61,-0.23 -0.87,-0.36 -0.87,-0.66c0,-0.25 0.22,-0.45 0.68,-0.45c0.45,0 0.78,0.13 0.97,0.22l0.24,-0.85c-0.28,-0.12 -0.67,-0.23 -1.2,-0.23c-1.11,0 -1.77,0.6 -1.77,1.39c0,0.67 0.5,1.09 1.28,1.36c0.57,0.2 0.79,0.36 0.79,0.65c0,0.3 -0.25,0.5 -0.74,0.5c-0.45,0 -0.89,-0.15 -1.17,-0.29zm3.74,0l-0.22,0.89c0.26,0.15 0.8,0.28 1.33,0.28c1.28,0 1.89,-0.66 1.89,-1.44c0,-0.64 -0.38,-1.06 -1.21,-1.37c-0.61,-0.23 -0.87,-0.36 -0.87,-0.66c0,-0.25 0.22,-0.45 0.68,-0.45c0.45,0 0.78,0.13 0.97,0.22l0.24,-0.85c-0.28,-0.12 -0.67,-0.23 -1.2,-0.23c-1.11,0 -1.77,0.6 -1.77,1.39c0,0.67 0.5,1.09 1.28,1.36c0.56,0.2 0.79,0.36 0.79,0.65c0,0.3 -0.26,0.5 -0.74,0.5c-0.45,0 -0.89,-0.15 -1.17,-0.29zm3.72,-3.48l-0.01,0l0,4.53c0.27,0.04 0.65,0.07 1.2,0.07c0.91,0 1.67,-0.19 2.15,-0.6c0.46,-0.38 0.79,-0.99 0.79,-1.87c0,-0.82 -0.3,-1.39 -0.79,-1.74c-0.44,-0.33 -1.02,-0.49 -1.9,-0.49c-0.55,0 -1.05,0.04 -1.44,0.1zm1.05,3.77l0.02,0l0,-3.03c0.09,-0.02 0.23,-0.04 0.47,-0.04c0.9,0 1.46,0.5 1.46,1.46c0,1.11 -0.62,1.62 -1.58,1.62c-0.13,0 -0.28,0 -0.37,-0.01zm-0.66,22.86l0,-7.19c0,-6.9 -5.68,-12.51 -12.65,-12.51l-3.3,0l0,-10l22.97,0l0,29.7l-7.02,0zm-15.95,-17.72l3.3,0c5.85,0 10.62,4.71 10.62,10.51l0,7.21l-13.92,0l0,-17.72zm23.99,19.72c0.54,0 1,-0.44 1,-0.99l0,-31.7c0,-0.54 -0.44,-1 -1,-1l-24.99,0c-0.55,0 -1.01,0.44 -1.01,1l0,11.98l0,19.72c0,0.54 0.45,0.99 1.01,0.99l15.93,0l9.06,0zm134.3,-49.33c0.56,0 1,-0.45 1,-1l0,-27.45c0,-0.54 -0.44,-0.99 -1,-0.99l-32.79,0c-0.55,0 -1.01,0.43 -1.01,0.99l0,27.46c0,0.54 0.44,0.99 1.01,0.99l32.79,0zm-31.79,-2l0,-25.44l9.78,0l0,3.1l-1.8,0c-0.55,0 -1,0.43 -1,0.99l0,3.27l-3.58,0c-0.55,0 -1.01,0.44 -1.01,1l0,12.76c0,0.54 0.45,0.99 1.01,0.99l23.98,0c0.57,0 1.01,-0.45 0.98,-0.99l0,-12.76c0,-0.54 -0.44,-1 -1.01,-1l-3.57,0l0,-3.27c0,-0.54 -0.45,-0.99 -1.01,-0.99l-1.58,0l0,-3.1l9.58,0l0,25.44l-30.77,0zm11.82,-25.44l7.38,0l0,4.09c0,0.54 0.44,0.99 1,0.99l1.58,0l0,3.28c0,0.54 0.45,0.99 1.01,0.99l3.57,0l0,10.76l-21.96,0l0,-10.76l3.61,0c0.55,0 1,-0.44 1,-0.99l0,-3.28l1.81,0c0.54,0 1,-0.43 1,-0.99l0,-4.09zm-10.11,1.97l0,2.53l3.37,0l0,-2.53l-3.37,0zm23.59,0l0,2.53l3.37,0l0,-2.53l-3.37,0zm-77.31,0.75c0.57,0 1.02,-0.46 1.01,-1c0,-0.54 -0.44,-0.99 -1.01,-0.99l-4.8,0l0,-0.61c0,-0.55 -0.44,-1 -1,-1l-0.62,0l0,-4.75c0,-0.54 -0.45,-0.99 -1.01,-0.99c-0.55,0 -1,0.44 -1,0.99l0,4.75l-2.03,0l0,-4.75c0,-0.54 -0.44,-0.99 -1,-0.99c-0.55,0 -1.01,0.44 -1.01,0.99l0,4.75l-2.04,0l0,-4.75c0,-0.54 -0.44,-0.99 -1,-0.99c-0.55,0 -1.01,0.44 -1.01,0.99l0,4.75l-2.04,0l0,-4.75c0,-0.54 -0.44,-0.99 -1,-0.99c-0.55,0 -1.01,0.44 -1.01,0.99l0,4.75l-2.02,0l0,-4.75c0,-0.54 -0.44,-0.99 -1.01,-0.99c-0.54,0 -1,0.44 -1,0.99l0,4.75l-2.04,0l0,-4.75c0,-0.54 -0.44,-0.99 -1.01,-0.99c-0.54,0 -1,0.44 -1,0.99l0,4.75l-0.62,0c-0.55,0 -1.01,0.44 -1.01,1l0,0.61l-4.38,0c-0.55,0 -1.01,0.44 -1.01,0.99c0,0.54 0.44,1 1.01,1l4.38,0l0,2.01l-4.38,0c-0.55,0 -1.01,0.44 -1.01,1c0,0.54 0.44,0.99 1.01,0.99l4.38,0l0,2.02l-4.38,0c-0.55,0 -1.01,0.44 -1.01,0.99c0,0.54 0.44,1 1.01,1l4.38,0l0,2l-4.38,0c-0.55,0 -1.01,0.44 -1.01,0.99c0,0.54 0.44,1 1.01,1l4.38,0l0,2.01l-4.38,0c-0.55,0 -1.01,0.44 -1.01,1c0,0.54 0.44,0.99 1.01,0.99l4.38,0l0,2.02l-4.38,0c-0.55,0 -1.01,0.44 -1.01,0.99c0,0.54 0.44,0.99 1.01,0.99l4.38,0l0,0.6c0,0.54 0.45,1 1.01,1l0.62,0l0,4.34c0,0.54 0.44,0.99 1,0.99c0.57,0 1.01,-0.44 1.01,-0.99l0,-4.34l2.04,0l0,4.34c0,0.54 0.44,0.99 1,0.99c0.55,0 1.01,-0.44 1.01,-0.99l0,-4.34l2.02,0l0,4.34c0,0.54 0.45,0.99 1.01,0.99s1.02,-0.44 1,-0.99l0,-4.34l2.04,0l0,4.34c0,0.54 0.45,0.99 1.01,0.99s1,-0.44 1,-0.99l0,-4.34l2.04,0l0,4.34c0,0.54 0.45,0.99 1.01,0.99c0.54,0 1,-0.44 1,-0.99l0,-4.34l2.03,0l0,4.34c0,0.54 0.44,0.99 1,0.99s1.02,-0.44 1.01,-0.99l0,-4.34l0.62,0c0.56,0 1,-0.44 1,-1l0,-0.6l4.8,0c0.57,0 1.02,-0.45 1.01,-0.99c0,-0.54 -0.44,-0.99 -1.01,-0.99l-4.8,0l0,-2.02l4.8,0c0.57,0 1.02,-0.45 1.01,-0.99c0,-0.54 -0.44,-1 -1.01,-1l-4.8,0l0,-2.01l4.8,0c0.57,0 1.02,-0.44 1.01,-1c0,-0.54 -0.44,-0.99 -1.01,-0.99l-4.8,0l0,-2l4.8,0c0.57,0 1.02,-0.46 1.01,-1c0,-0.54 -0.44,-0.99 -1.01,-0.99l-4.8,0l0,-2.02l4.8,0c0.57,0 1.02,-0.45 1.01,-0.99c0,-0.54 -0.44,-1 -1.01,-1l-4.8,0l0,-2.01l4.8,0zm-28.25,19.6l0,-21.21l21.44,0l0,21.21l-21.44,0zm53.05,9.26c5.87,0 10.64,-4.72 10.63,-10.52l0,-18.58c0,-0.54 -0.44,-0.99 -1.01,-0.99l-1.49,0l0,-8.73c0,-0.54 -0.44,-0.99 -1,-0.99l-14.25,0c-0.55,0 -1.01,0.44 -1.01,0.99l0,8.73l-1.5,0c-0.55,0 -1.01,0.44 -1.01,0.99l0,18.58c0,5.8 4.78,10.52 10.64,10.52zm-8.61,-28.1l1.49,0l14.25,0l1.49,0l0,17.56c0,4.69 -3.86,8.52 -8.62,8.52c-4.74,0 -8.61,-3.81 -8.61,-8.52l0,-17.56zm2.49,-2.01l0,-7.71l12.24,0l0,7.71l-12.24,0zm6.12,24.67c3.43,0 6.22,-2.76 6.21,-6.13c0,-3.38 -2.78,-6.14 -6.21,-6.14c-3.41,0 -6.2,2.75 -6.2,6.14c0,3.37 2.77,6.13 6.2,6.13zm0,-10.28c2.32,0 4.2,1.85 4.19,4.13c0,2.28 -1.88,4.14 -4.19,4.14c-2.3,0 -4.18,-1.86 -4.18,-4.14s1.88,-4.13 4.18,-4.13zm-3.4,-19.24l0,2l2.18,0l0,-2l-2.18,0zm4.63,0l0,2l2.17,0l0,-2l-2.17,0zm-31.17,79.32c0.55,0 1.01,-0.44 1.01,-1l0,-11.43c0,-0.54 -0.45,-0.99 -1.01,-0.99l-0.16,0l0,-4.28l0.16,0c0.55,0 1.01,-0.44 1.01,-1l0,-12.32c0,-0.54 -0.45,-0.99 -1.01,-0.99l-17.81,0c-0.26,0 -0.51,0.1 -0.71,0.29l-6.56,6.49c-0.19,0.18 -0.29,0.44 -0.29,0.7l0,4.26c0,0.54 0.44,0.99 1,0.99l0.46,0l0,0.29l-0.46,0c-0.54,0 -1,0.44 -1,1l0,16.99c0,0.54 0.44,1 1,1l24.37,0zm-23.36,-2.01l0,-14.99l0.46,0c0.54,0 1,-0.44 1,-0.99l0,-2.3c0,-0.54 -0.44,-0.99 -1,-0.99l-0.46,0l0,-2.85l5.97,-5.89l16.37,0l0,10.32l-0.16,0c-0.55,0 -1.01,0.43 -1.01,0.99l0,6.28c0,0.55 0.45,1 1.01,1l0.16,0l0,9.42l-22.34,0zm6.83,-26.2l0,3.86l2.02,0l0,-3.86l-2.02,0zm3.48,0l0,3.86l2.03,0l0,-3.86l-2.03,0zm3.51,0l0,3.86l2.02,0l0,-3.86l-2.02,0zm3.48,0l0,3.86l2.03,0l0,-3.86l-2.03,0zm51.39,27.4c0.56,0 1.02,-0.45 1,-1.01l0,-28.41c0,-0.54 -0.44,-0.99 -1,-0.99l-30.77,0c-0.55,0 -1.01,0.44 -1.01,0.99l0,28.43c0,0.54 0.45,0.99 1.01,0.99l30.77,0zm-29.75,-2l0,-26.41l28.74,0l0,26.41l-28.74,0zm25.33,-13.8c0.56,0 1,-0.45 0.99,-0.99l0,-8.49c0,-0.54 -0.44,-0.99 -1.01,-0.99l-21.91,0c-0.55,0 -1.01,0.43 -1.01,0.99l0,8.49c0,0.54 0.45,0.99 1.01,0.99l21.93,0zm-20.91,-2l0,-6.49l19.9,0l0,6.49l-19.9,0zm1.55,-5.24l0,2l1.88,0l0,1.11l1.7,0l0,-1.11l2.08,0l0,1.11l1.7,0l0,-1.11l2.08,0l0,1.11l1.7,0l0,-1.11l2.09,0l0,1.11l1.69,0l0,-1.11l1.88,0l0,-2l-16.8,0zm19.36,18.93c0.56,0 1,-0.45 0.99,-1l0,-8.49c0,-0.54 -0.44,-0.99 -1.01,-0.99l-21.91,0c-0.55,0 -1.01,0.44 -1.01,0.99l0,8.49c0,0.55 0.45,1 1.01,1l21.93,0zm-20.91,-2l0,-6.49l19.9,0l0,6.49l-19.9,0zm1.55,-5.25l0,2l1.88,0l0,1.11l1.7,0l0,-1.11l2.08,0l0,1.11l1.7,0l0,-1.11l2.08,0l0,1.11l1.7,0l0,-1.11l2.09,0l0,1.11l1.69,0l0,-1.11l1.88,0l0,-2l-16.8,0zm38.42,8.29c3.71,3.67 9.77,3.67 13.48,0l8.02,-7.93c3.49,-3.43 3.71,-8.88 0.68,-12.58l0.76,-0.75c2.78,-2.75 3.07,-7.02 0.91,-10.08c-0.36,-0.53 -1.12,-0.6 -1.56,-0.17c-0.36,0.36 -0.39,0.9 -0.11,1.31c1.62,2.29 1.39,5.48 -0.68,7.52l-0.75,0.75c-3.73,-3 -9.24,-2.77 -12.72,0.67l-8.03,7.94c-3.72,3.66 -3.72,9.64 0,13.32zm20.07,-19.84c2.93,2.89 2.93,7.6 0.02,10.49l-8.03,7.94c-2.92,2.89 -7.7,2.89 -10.62,0c-2.93,-2.9 -2.93,-7.62 0,-10.51l8.01,-7.92c2.92,-2.9 7.7,-2.9 10.62,0zm-5.88,5.81c0.38,0.4 1.03,0.4 1.43,0l1.54,-1.52c0.4,-0.39 0.4,-1.02 0,-1.41c-0.4,-0.4 -1.03,-0.4 -1.43,0l-1.54,1.52c-0.4,0.39 -0.4,1.02 0,1.41z" fill="#B7C7C8" clip-rule="evenodd" fill-rule="evenodd"/>
  <path id="svg_3" d="m159.97,0c-0.18,8.19 -6.98,14.81 -15.3,14.81c-8.33,0 -15.13,-6.62 -15.31,-14.81l-2.03,0c0.19,9.3 7.89,16.81 17.34,16.81c9.44,0 17.14,-7.51 17.32,-16.81l-2.02,0zm-10.26,0c-0.17,2.61 -2.37,4.66 -5.04,4.66c-2.68,0 -4.88,-2.05 -5.05,-4.66l-2.03,0c0.18,3.7 3.29,6.67 7.08,6.67c3.78,0 6.89,-2.97 7.06,-6.67l-2.02,0zm-2.98,0c-0.16,0.98 -1.03,1.74 -2.06,1.74c-1.04,0 -1.91,-0.76 -2.08,-1.74l-2.04,0c0.18,2.09 1.96,3.73 4.12,3.73c2.15,0 3.93,-1.64 4.1,-3.73l-2.04,0zm-59.05,12.67l0,-12.67l-2.01,0l0,13.68c0,0.54 0.44,0.99 1,0.99l32.8,0c0.56,0 1,-0.45 1,-1l0,-13.67l-2.02,0l0,12.67l-30.77,0zm26.36,-12.67l0,7.34l-21.96,0l0,-7.34l-2,0l-0.01,8.35c0,0.54 0.45,0.99 1.01,0.99l23.98,0c0.57,0 1.01,-0.45 0.98,-0.99l0,-8.35l-2,0zm-77.36,0.95c0,-0.44 -0.3,-0.83 -0.72,-0.95l-7.1,0l0,9.55l-21.44,0l0,-9.55l-6.71,0c-0.4,0.12 -0.71,0.5 -0.71,0.95c0,0.54 0.44,1 1.01,1l4.38,0l0,2.01l-4.38,0c-0.55,0 -1.01,0.44 -1.01,1c0,0.54 0.44,0.99 1.01,0.99l4.38,0l0,2.02l-4.38,0c-0.55,0 -1.01,0.44 -1.01,0.99c0,0.54 0.44,0.99 1.01,0.99l4.38,0l0,0.6c0,0.54 0.45,1 1.01,1l0.62,0l0,4.34c0,0.54 0.44,0.99 1,0.99c0.57,0 1.01,-0.44 1.01,-0.99l0,-4.34l2.04,0l0,4.34c0,0.54 0.44,0.99 1,0.99c0.55,0 1.01,-0.44 1.01,-0.99l0,-4.34l2.02,0l0,4.34c0,0.54 0.45,0.99 1.01,0.99c0.56,0 1.02,-0.44 1,-0.99l0,-4.34l2.04,0l0,4.34c0,0.54 0.45,0.99 1.01,0.99s1,-0.44 1,-0.99l0,-4.34l2.04,0l0,4.34c0,0.54 0.45,0.99 1.01,0.99c0.54,0 1,-0.44 1,-0.99l0,-4.34l2.03,0l0,4.34c0,0.54 0.44,0.99 1,0.99s1.02,-0.44 1.01,-0.99l0,-4.34l0.62,0c0.56,0 1,-0.44 1,-1l0,-0.6l4.8,0c0.57,0 1.02,-0.45 1.01,-0.99c0,-0.54 -0.44,-0.99 -1.01,-0.99l-4.8,0l0,-2.02l4.8,0c0.57,0 1.02,-0.45 1.01,-0.99c0,-0.54 -0.44,-1 -1.01,-1l-4.8,0l0,-2.01l4.8,0c0.57,0 1.02,-0.44 1.01,-1zm32.41,-0.95l0,8.27c0,4.69 -3.86,8.52 -8.62,8.52c-4.74,0 -8.61,-3.81 -8.61,-8.52l-0.01,-8.27l-2.02,0l0,8.29c0,5.8 4.78,10.52 10.64,10.52c5.87,0 10.64,-4.72 10.63,-10.52l0,-8.29l-2.01,0zm-8.62,13.37c3.43,0 6.22,-2.76 6.21,-6.13c0,-3.38 -2.78,-6.14 -6.21,-6.14c-3.41,0 -6.2,2.75 -6.2,6.14c0,3.37 2.77,6.13 6.2,6.13zm0,-10.28c2.32,0 4.2,1.85 4.19,4.13c0,2.28 -1.88,4.14 -4.19,4.14c-2.3,0 -4.18,-1.86 -4.18,-4.14s1.88,-4.13 4.18,-4.13zm-29.94,60.08c0.55,0 1.01,-0.44 1.01,-1l0,-11.43c0,-0.54 -0.45,-0.99 -1.01,-0.99l-0.16,0l0,-4.28l0.16,0c0.55,0 1.01,-0.44 1.01,-1l0,-12.32c0,-0.54 -0.45,-0.99 -1.01,-0.99l-17.81,0c-0.26,0 -0.51,0.1 -0.71,0.29l-6.56,6.49c-0.19,0.18 -0.29,0.44 -0.29,0.7l0,4.26c0,0.54 0.44,0.99 1,0.99l0.46,0l0,0.29l-0.46,0c-0.54,0 -1,0.44 -1,1l0,16.99c0,0.54 0.44,1 1,1l24.37,0zm-23.36,-2.01l0,-14.99l0.46,0c0.54,0 1,-0.44 1,-0.99l0,-2.3c0,-0.54 -0.44,-0.99 -1,-0.99l-0.46,0l0,-2.85l5.97,-5.89l16.37,0l0,10.32l-0.16,0c-0.55,0 -1.01,0.43 -1.01,0.99l0,6.28c0,0.55 0.45,1 1.01,1l0.16,0l0,9.42l-22.34,0zm6.83,-26.2l0,3.86l2.02,0l0,-3.86l-2.02,0zm3.48,0l0,3.86l2.03,0l0,-3.86l-2.03,0zm3.51,0l0,3.86l2.02,0l0,-3.86l-2.02,0zm3.48,0l0,3.86l2.03,0l0,-3.86l-2.03,0zm51.39,27.4c0.56,0 1.02,-0.45 1,-1.01l0,-28.41c0,-0.54 -0.44,-0.99 -1,-0.99l-30.77,0c-0.55,0 -1.01,0.44 -1.01,0.99l0,28.43c0,0.54 0.45,0.99 1.01,0.99l30.77,0zm-29.75,-2l0,-26.41l28.74,0l0,26.41l-28.74,0zm25.33,-13.8c0.56,0 1,-0.45 0.99,-0.99l0,-8.49c0,-0.54 -0.44,-0.99 -1.01,-0.99l-21.91,0c-0.55,0 -1.01,0.43 -1.01,0.99l0,8.49c0,0.54 0.45,0.99 1.01,0.99l21.93,0zm-20.91,-2l0,-6.49l19.9,0l0,6.49l-19.9,0zm1.55,-5.24l0,2l1.88,0l0,1.11l1.7,0l-0.01,-1.11l2.09,0l0,1.11l1.7,0l0,-1.11l2.08,0l0,1.11l1.7,0l0,-1.11l2.09,0l0,1.11l1.69,0l0,-1.11l1.88,0l0,-2l-16.8,0zm19.36,18.93c0.56,0 1,-0.45 0.99,-1l0,-8.49c0,-0.54 -0.44,-0.99 -1.01,-0.99l-21.91,0c-0.55,0 -1.01,0.44 -1.01,0.99l0,8.49c0,0.55 0.45,1 1.01,1l21.93,0zm-20.91,-2l0,-6.49l19.9,0l0,6.49l-19.9,0zm1.55,-5.25l0,2l1.88,0l0,1.11l1.7,0l-0.01,-1.11l2.09,0l0,1.11l1.7,0l0,-1.11l2.08,0l0,1.11l1.7,0l0,-1.11l2.09,0l0,1.11l1.69,0l0,-1.11l1.88,0l0,-2l-16.8,0zm38.42,8.29c3.71,3.67 9.77,3.67 13.48,0l8.02,-7.93c3.49,-3.43 3.71,-8.88 0.68,-12.58l0.76,-0.75c2.78,-2.75 3.07,-7.02 0.91,-10.08c-0.36,-0.53 -1.12,-0.6 -1.56,-0.17c-0.36,0.36 -0.39,0.9 -0.11,1.31c1.62,2.29 1.39,5.48 -0.68,7.52l-0.75,0.75c-3.73,-3 -9.24,-2.77 -12.72,0.67l-8.03,7.94c-3.72,3.66 -3.72,9.64 0,13.32zm20.07,-19.84c2.93,2.89 2.93,7.6 0.02,10.49l-8.03,7.94c-2.92,2.89 -7.7,2.89 -10.62,0c-2.93,-2.9 -2.93,-7.62 0,-10.51l8.01,-7.92c2.92,-2.9 7.7,-2.9 10.62,0zm-5.88,5.81c0.38,0.4 1.03,0.4 1.43,0l1.54,-1.52c0.4,-0.39 0.4,-1.02 0,-1.41c-0.4,-0.4 -1.03,-0.4 -1.43,0l-1.54,1.52c-0.4,0.39 -0.4,1.02 0,1.41zm44.44,16.74l0,-7.19c0,-6.9 -5.68,-12.51 -12.65,-12.51l-3.3,0l0,-10l22.97,0l0,29.7l-7.02,0zm-15.95,-17.72l3.3,0c5.85,0 10.62,4.71 10.62,10.51l0,7.21l-13.92,0l0,-17.72zm23.99,19.72c0.54,0 1,-0.44 1,-0.99l0,-31.7c0,-0.54 -0.44,-1 -1,-1l-24.99,0c-0.55,0 -1.01,0.44 -1.01,1l0,11.98l0,19.72c0,0.54 0.45,0.99 1.01,0.99l15.93,0l9.06,0zm-15.89,-25.15l-0.22,0.89c0.27,0.15 0.8,0.28 1.33,0.28c1.28,0 1.89,-0.66 1.89,-1.44c0,-0.64 -0.38,-1.06 -1.21,-1.37c-0.61,-0.23 -0.87,-0.36 -0.87,-0.66c0,-0.25 0.22,-0.45 0.68,-0.45c0.45,0 0.78,0.13 0.97,0.22l0.24,-0.85c-0.28,-0.12 -0.67,-0.23 -1.2,-0.23c-1.11,0 -1.77,0.6 -1.77,1.39c0,0.67 0.5,1.09 1.28,1.36c0.57,0.2 0.79,0.36 0.79,0.65c0,0.3 -0.25,0.5 -0.74,0.5c-0.45,0 -0.89,-0.15 -1.17,-0.29zm3.74,0l-0.22,0.89c0.26,0.15 0.8,0.28 1.33,0.28c1.28,0 1.89,-0.66 1.89,-1.44c0,-0.64 -0.38,-1.06 -1.21,-1.37c-0.61,-0.23 -0.87,-0.36 -0.87,-0.66c0,-0.25 0.22,-0.45 0.68,-0.45c0.45,0 0.78,0.13 0.97,0.22l0.24,-0.85c-0.28,-0.12 -0.67,-0.23 -1.2,-0.23c-1.11,0 -1.77,0.6 -1.77,1.39c0,0.67 0.5,1.09 1.28,1.36c0.56,0.2 0.79,0.36 0.79,0.65c0,0.3 -0.26,0.5 -0.74,0.5c-0.45,0 -0.89,-0.15 -1.17,-0.29zm3.71,-3.48l0,4.53c0.27,0.04 0.65,0.07 1.2,0.07c0.91,0 1.67,-0.19 2.15,-0.6c0.46,-0.38 0.79,-0.99 0.79,-1.87c0,-0.82 -0.3,-1.39 -0.79,-1.74c-0.44,-0.33 -1.02,-0.49 -1.9,-0.49c-0.55,0 -1.07,0.04 -1.45,0.1zm1.08,3.77l0,-3.03c0.09,-0.02 0.23,-0.04 0.47,-0.04c0.9,0 1.46,0.5 1.46,1.46c0,1.11 -0.62,1.62 -1.58,1.62c-0.13,0 -0.26,0 -0.35,-0.01zm182.16,-39.14c-0.18,8.19 -6.98,14.81 -15.3,14.81c-8.33,0 -15.13,-6.62 -15.31,-14.81l-2.03,0c0.19,9.3 7.89,16.81 17.34,16.81c9.44,0 17.14,-7.51 17.32,-16.81l-2.02,0zm-10.26,0c-0.17,2.61 -2.37,4.66 -5.04,4.66c-2.68,0 -4.88,-2.05 -5.05,-4.66l-2.03,0c0.18,3.7 3.29,6.67 7.08,6.67c3.78,0 6.89,-2.97 7.06,-6.67l-2.02,0zm-2.98,0c-0.16,0.98 -1.03,1.74 -2.06,1.74c-1.04,0 -1.91,-0.76 -2.08,-1.74l-2.04,0c0.18,2.09 1.96,3.73 4.12,3.73c2.15,0 3.93,-1.64 4.1,-3.73l-2.04,0zm-59.05,12.67l0,-12.67l-2.01,0l0,13.68c0,0.54 0.44,0.99 1,0.99l32.8,0c0.56,0 1,-0.45 1,-1l0,-13.67l-2.02,0l0,12.67l-30.77,0zm26.36,-12.67l0,7.34l-21.96,0l0,-7.34l-2.01,0l0,8.35c0,0.54 0.45,0.99 1.01,0.99l23.98,0c0.57,0 1.01,-0.45 0.98,-0.99l0,-8.35l-2,0zm-77.36,0.95c0,-0.44 -0.3,-0.83 -0.72,-0.95l-7.1,0l0,9.55l-21.44,0l0,-9.55l-6.71,0c-0.4,0.12 -0.71,0.5 -0.71,0.95c0,0.54 0.44,1 1.01,1l4.38,0l0,2.01l-4.38,0c-0.55,0 -1.01,0.44 -1.01,1c0,0.54 0.44,0.99 1.01,0.99l4.38,0l0,2.02l-4.38,0c-0.55,0 -1.01,0.44 -1.01,0.99c0,0.54 0.44,0.99 1.01,0.99l4.38,0l0,0.6c0,0.54 0.45,1 1.01,1l0.62,0l0,4.34c0,0.54 0.44,0.99 1,0.99c0.57,0 1.01,-0.44 1.01,-0.99l0,-4.34l2.04,0l0,4.34c0,0.54 0.44,0.99 1,0.99c0.55,0 1.01,-0.44 1.01,-0.99l0,-4.34l2.02,0l0,4.34c0,0.54 0.45,0.99 1.01,0.99s1.02,-0.44 1,-0.99l0,-4.34l2.04,0l0,4.34c0,0.54 0.45,0.99 1.01,0.99s1,-0.44 1,-0.99l0,-4.34l2.04,0l0,4.34c0,0.54 0.45,0.99 1.01,0.99c0.54,0 1,-0.44 1,-0.99l0,-4.34l2.03,0l0,4.34c0,0.54 0.44,0.99 1,0.99s1.02,-0.44 1.01,-0.99l0,-4.34l0.62,0c0.56,0 1,-0.44 1,-1l0,-0.6l4.8,0c0.57,0 1.02,-0.45 1.01,-0.99c0,-0.54 -0.44,-0.99 -1.01,-0.99l-4.8,0l0,-2.02l4.8,0c0.57,0 1.02,-0.45 1.01,-0.99c0,-0.54 -0.44,-1 -1.01,-1l-4.8,0l0,-2.01l4.8,0c0.57,0 1.02,-0.44 1.01,-1zm32.41,-0.95l0,8.27c0,4.69 -3.86,8.52 -8.62,8.52c-4.74,0 -8.61,-3.81 -8.61,-8.52l-0.01,-8.27l-2.02,0l0,8.29c0,5.8 4.78,10.52 10.64,10.52c5.87,0 10.64,-4.72 10.63,-10.52l0,-8.29l-2.01,0zm-8.62,13.37c3.43,0 6.22,-2.76 6.21,-6.13c0,-3.38 -2.78,-6.14 -6.21,-6.14c-3.41,0 -6.2,2.75 -6.2,6.14c0,3.37 2.77,6.13 6.2,6.13zm0,-10.28c2.32,0 4.2,1.85 4.19,4.13c0,2.28 -1.88,4.14 -4.19,4.14c-2.3,0 -4.18,-1.86 -4.18,-4.14s1.88,-4.13 4.18,-4.13zm-29.94,60.08c0.55,0 1.01,-0.44 1.01,-1l0,-11.43c0,-0.54 -0.45,-0.99 -1.01,-0.99l-0.16,0l0,-4.28l0.16,0c0.55,0 1.01,-0.44 1.01,-1l0,-12.32c0,-0.54 -0.45,-0.99 -1.01,-0.99l-17.81,0c-0.26,0 -0.51,0.1 -0.71,0.29l-6.56,6.49c-0.19,0.18 -0.29,0.44 -0.29,0.7l0,4.26c0,0.54 0.44,0.99 1,0.99l0.46,0l0,0.29l-0.46,0c-0.54,0 -1,0.44 -1,1l0,16.99c0,0.54 0.44,1 1,1l24.37,0zm-23.36,-2.01l0,-14.99l0.46,0c0.54,0 1,-0.44 1,-0.99l0,-2.3c0,-0.54 -0.44,-0.99 -1,-0.99l-0.46,0l0,-2.85l5.97,-5.89l16.37,0l0,10.32l-0.16,0c-0.55,0 -1.01,0.43 -1.01,0.99l0,6.28c0,0.55 0.45,1 1.01,1l0.16,0l0,9.42l-22.34,0zm6.83,-26.2l0,3.86l2.02,0l0,-3.86l-2.02,0zm3.48,0l0,3.86l2.03,0l0,-3.86l-2.03,0zm3.51,0l0,3.86l2.02,0l0,-3.86l-2.02,0zm3.48,0l0,3.86l2.03,0l0,-3.86l-2.03,0zm51.39,27.4c0.56,0 1.02,-0.45 1,-1.01l0,-28.41c0,-0.54 -0.44,-0.99 -1,-0.99l-30.77,0c-0.55,0 -1.01,0.44 -1.01,0.99l0,28.43c0,0.54 0.45,0.99 1.01,0.99l30.77,0zm-29.75,-2l0,-26.41l28.74,0l0,26.41l-28.74,0zm25.33,-13.8c0.56,0 1,-0.45 0.99,-0.99l0,-8.49c0,-0.54 -0.44,-0.99 -1.01,-0.99l-21.91,0c-0.55,0 -1.01,0.43 -1.01,0.99l0,8.49c0,0.54 0.45,0.99 1.01,0.99l21.93,0zm-20.91,-2l0,-6.49l19.9,0l0,6.49l-19.9,0zm1.55,-5.24l0,2l1.88,0l0,1.11l1.7,0l-0.01,-1.11l2.09,0l0,1.11l1.7,0l0,-1.11l2.08,0l0,1.11l1.7,0l0,-1.11l2.09,0l0,1.11l1.69,0l0,-1.11l1.88,0l0,-2l-16.8,0zm19.36,18.93c0.56,0 1,-0.45 0.99,-1l0,-8.49c0,-0.54 -0.44,-0.99 -1.01,-0.99l-21.91,0c-0.55,0 -1.01,0.44 -1.01,0.99l0,8.49c0,0.55 0.45,1 1.01,1l21.93,0zm-20.91,-2l0,-6.49l19.9,0l0,6.49l-19.9,0zm1.55,-5.25l0,2l1.88,0l0,1.11l1.7,0l-0.01,-1.11l2.09,0l0,1.11l1.7,0l0,-1.11l2.08,0l0,1.11l1.7,0l0,-1.11l2.09,0l0,1.11l1.69,0l0,-1.11l1.88,0l0,-2l-16.8,0zm38.42,8.29c3.71,3.67 9.77,3.67 13.48,0l8.02,-7.93c3.49,-3.43 3.71,-8.88 0.68,-12.58l0.76,-0.75c2.78,-2.75 3.07,-7.02 0.91,-10.08c-0.36,-0.53 -1.12,-0.6 -1.56,-0.17c-0.36,0.36 -0.39,0.9 -0.11,1.31c1.62,2.29 1.39,5.48 -0.68,7.52l-0.75,0.75c-3.73,-3 -9.24,-2.77 -12.72,0.67l-8.03,7.94c-3.72,3.66 -3.72,9.64 0,13.32zm20.07,-19.84c2.93,2.89 2.93,7.6 0.02,10.49l-8.03,7.94c-2.92,2.89 -7.7,2.89 -10.62,0c-2.93,-2.9 -2.93,-7.62 0,-10.51l8.01,-7.92c2.92,-2.9 7.7,-2.9 10.62,0zm-5.88,5.81c0.38,0.4 1.03,0.4 1.43,0l1.54,-1.52c0.4,-0.39 0.4,-1.02 0,-1.41c-0.4,-0.4 -1.03,-0.4 -1.43,0l-1.54,1.52c-0.4,0.39 -0.4,1.02 0,1.41zm44.44,16.74l0,-7.19c0,-6.9 -5.68,-12.51 -12.65,-12.51l-3.3,0l0,-10l22.97,0l0,29.7l-7.02,0zm-15.95,-17.72l3.3,0c5.85,0 10.62,4.71 10.62,10.51l0,7.21l-13.92,0l0,-17.72zm23.99,19.72c0.54,0 1,-0.44 1,-0.99l0,-31.7c0,-0.54 -0.44,-1 -1,-1l-24.99,0c-0.55,0 -1.01,0.44 -1.01,1l0,11.98l0,19.72c0,0.54 0.45,0.99 1.01,0.99l15.93,0l9.06,0zm-15.89,-25.15l-0.22,0.89c0.27,0.15 0.8,0.28 1.33,0.28c1.28,0 1.89,-0.66 1.89,-1.44c0,-0.64 -0.38,-1.06 -1.21,-1.37c-0.61,-0.23 -0.87,-0.36 -0.87,-0.66c0,-0.25 0.22,-0.45 0.68,-0.45c0.45,0 0.78,0.13 0.97,0.22l0.24,-0.85c-0.28,-0.12 -0.67,-0.23 -1.2,-0.23c-1.11,0 -1.77,0.6 -1.77,1.39c0,0.67 0.5,1.09 1.28,1.36c0.57,0.2 0.79,0.36 0.79,0.65c0,0.3 -0.25,0.5 -0.74,0.5c-0.45,0 -0.89,-0.15 -1.17,-0.29zm3.74,0l-0.22,0.89c0.26,0.15 0.8,0.28 1.33,0.28c1.28,0 1.89,-0.66 1.89,-1.44c0,-0.64 -0.38,-1.06 -1.21,-1.37c-0.61,-0.23 -0.87,-0.36 -0.87,-0.66c0,-0.25 0.22,-0.45 0.68,-0.45c0.45,0 0.78,0.13 0.97,0.22l0.24,-0.85c-0.28,-0.12 -0.67,-0.23 -1.2,-0.23c-1.11,0 -1.77,0.6 -1.77,1.39c0,0.67 0.5,1.09 1.28,1.36c0.56,0.2 0.79,0.36 0.79,0.65c0,0.3 -0.26,0.5 -0.74,0.5c-0.45,0 -0.89,-0.15 -1.17,-0.29zm3.71,-3.48l0,4.53c0.27,0.04 0.65,0.07 1.2,0.07c0.91,0 1.67,-0.19 2.15,-0.6c0.46,-0.38 0.79,-0.99 0.79,-1.87c0,-0.82 -0.3,-1.39 -0.79,-1.74c-0.44,-0.33 -1.02,-0.49 -1.9,-0.49c-0.55,0 -1.07,0.04 -1.45,0.1zm1.08,3.77l0,-3.03c0.09,-0.02 0.23,-0.04 0.47,-0.04c0.9,0 1.46,0.5 1.46,1.46c0,1.11 -0.62,1.62 -1.58,1.62c-0.13,0 -0.26,0 -0.35,-0.01zm53.19,-39.14l-2.14,0l0,9.55l-21.44,0l0,-9.55l-6.71,0c-0.4,0.12 -0.71,0.5 -0.71,0.95c0,0.54 0.44,1 1.01,1l4.38,0l0,2.01l-4.38,0c-0.55,0 -1.01,0.44 -1.01,1c0,0.54 0.44,0.99 1.01,0.99l4.38,0l0,2.02l-4.38,0c-0.55,0 -1.01,0.44 -1.01,0.99c0,0.54 0.44,0.99 1.01,0.99l4.38,0l0,0.6c0,0.54 0.45,1 1.01,1l0.62,0l0,4.34c0,0.54 0.44,0.99 1,0.99c0.57,0 1.01,-0.44 1.01,-0.99l0,-4.34l2.04,0l0,4.34c0,0.54 0.44,0.99 1,0.99c0.55,0 1.01,-0.44 1.01,-0.99l0,-4.34l2.02,0l0,4.34c0,0.54 0.45,0.99 1.01,0.99s1.02,-0.44 1,-0.99l0,-4.34l2.04,0l0,4.34c0,0.54 0.45,0.99 1.01,0.99s1,-0.44 1,-0.99l0,-4.34l2.04,0l0,4.34c0,0.54 0.45,0.99 1.01,0.99c0.54,0 1,-0.44 1,-0.99l0,-4.34l2.03,0l0,4.34c0,0.54 0.44,0.99 1,0.99s1.02,-0.44 1.01,-0.99l0,-4.34l0.62,0c0.56,0 1,-0.44 1,-1l0,-0.6l0.13,0l0,-1.99l-0.13,0.01l0,-2.02l0.13,0l0,-1.99l-0.13,0l0,-2.01l0.13,-0.01l0,-1.94zm-0.47,63.17c0.17,0 0.33,-0.05 0.47,-0.12l0,-13.19c-0.14,-0.07 -0.3,-0.11 -0.47,-0.11l-0.16,0l0,-4.28l0.16,0c0.17,0 0.33,-0.04 0.47,-0.12l0,-14.08c-0.14,-0.07 -0.3,-0.11 -0.47,-0.11l-17.81,0c-0.26,0 -0.51,0.1 -0.71,0.29l-6.56,6.49c-0.19,0.18 -0.29,0.44 -0.29,0.7l0,4.26c0,0.54 0.44,0.99 1,0.99l0.46,0l0,0.29l-0.46,0c-0.54,0 -1,0.44 -1,1l0,16.99c0,0.54 0.44,1 1,1l24.37,0zm-23.36,-2.01l0,-14.99l0.46,0c0.54,0 1,-0.44 1,-0.99l0,-2.3c0,-0.54 -0.44,-0.99 -1,-0.99l-0.46,0l0,-2.85l5.97,-5.89l16.37,0l0,10.32l-0.16,0c-0.55,0 -1.01,0.43 -1.01,0.99l0,6.28c0,0.55 0.45,1 1.01,1l0.16,0l0,9.42l-22.34,0zm6.83,-26.2l0,3.86l2.02,0l0,-3.86l-2.02,0zm3.48,0l0,3.86l2.03,0l0,-3.86l-2.03,0zm3.51,0l0,3.86l2.02,0l0,-3.86l-2.02,0zm3.48,0l0,3.86l2.03,0l0,-3.86l-2.03,0z" fill="#B7C7C8" clip-rule="evenodd" fill-rule="evenodd"/>
  <path id="svg_4" d="m93.67,301.81c9.56,0 17.33,-7.69 17.33,-17.14c0,-9.46 -7.77,-17.15 -17.33,-17.15c-9.57,0 -17.34,7.69 -17.34,17.15c0,9.45 7.77,17.14 17.34,17.14zm0,-32.29c8.43,0 15.31,6.79 15.31,15.15c0,8.34 -6.88,15.14 -15.31,15.14c-8.44,0 -15.32,-6.8 -15.32,-15.14c0,-8.35 6.88,-15.15 15.32,-15.15zm0,22.15c3.9,0 7.07,-3.15 7.07,-7c0,-3.86 -3.17,-7.01 -7.07,-7.01c-3.91,0 -7.08,3.15 -7.08,7.01c0,3.85 3.17,7 7.08,7zm0,-12c2.79,0 5.05,2.23 5.05,5c0,2.76 -2.26,4.99 -5.05,4.99c-2.8,0 -5.06,-2.23 -5.06,-4.99c0,-2.77 2.26,-5 5.06,-5zm0,9.06c2.27,0 4.12,-1.83 4.12,-4.08s-1.85,-4.08 -4.12,-4.08c-2.28,0 -4.13,1.83 -4.13,4.08s1.85,4.08 4.13,4.08zm0,-6.14c1.15,0 2.09,0.94 2.09,2.08c0,1.14 -0.94,2.07 -2.09,2.07c-1.16,0 -2.1,-0.93 -2.1,-2.07c0,-1.14 0.94,-2.08 2.1,-2.08zm-25.2,17.08c0.56,0 1,-0.45 1,-1l0,-27.45c0,-0.54 -0.44,-0.99 -1,-0.99l-32.8,0c-0.54,0 -1,0.43 -1,0.99l0,27.46c0,0.54 0.44,0.99 1,0.99l32.8,0zm-31.79,-2l0,-25.44l9.78,0l0,3.1l-1.8,0c-0.55,0 -1,0.43 -1,0.99l0,3.27l-3.58,0c-0.55,0 -1.01,0.44 -1.01,1l0,12.76c0,0.54 0.45,0.99 1.01,0.99l23.98,0c0.57,0 1.01,-0.45 0.98,-0.99l0,-12.76c0,-0.54 -0.44,-1 -1.01,-1l-3.57,0l0,-3.27c0,-0.54 -0.45,-0.99 -1.01,-0.99l-1.58,0l0,-3.1l9.58,0l0,25.44l-30.77,0zm11.82,-25.44l7.38,0l0,4.09c0,0.54 0.44,0.99 1,0.99l1.58,0l0,3.28c0,0.54 0.45,0.99 1.01,0.99l3.57,0l0,10.76l-21.96,0l0,-10.76l3.61,0c0.55,0 1,-0.44 1,-0.99l0,-3.28l1.81,0c0.54,0 1,-0.43 1,-0.99l0,-4.09zm-10.11,1.97l0,2.53l3.37,0l0,-2.53l-3.37,0zm23.59,0l0,2.53l3.37,0l0,-2.53l-3.37,0zm-52.51,29.61c5.87,0 10.64,-4.72 10.63,-10.52l0,-18.58c0,-0.54 -0.44,-0.99 -1.01,-0.99l-1.49,0l0,-8.73c0,-0.54 -0.44,-0.99 -1,-0.99l-14.25,0c-0.55,0 -1.01,0.44 -1.01,0.99l0,8.73l-1.34,0l0,24.36c1.77,3.4 5.35,5.73 9.47,5.73zm-8.61,-28.1l1.49,0l14.25,0l1.49,0l0,17.56c0,4.69 -3.86,8.52 -8.62,8.52c-4.74,0 -8.61,-3.81 -8.61,-8.52l0,-17.56zm2.49,-2.01l0,-7.71l12.24,0l0,7.71l-12.24,0zm6.12,24.67c3.43,0 6.22,-2.76 6.21,-6.13c0,-3.38 -2.78,-6.14 -6.21,-6.14c-3.41,0 -6.2,2.75 -6.2,6.14c0,3.37 2.77,6.13 6.2,6.13zm0,-10.28c2.32,0 4.2,1.85 4.19,4.13c0,2.28 -1.88,4.14 -4.19,4.14c-2.3,0 -4.18,-1.86 -4.18,-4.14s1.88,-4.13 4.18,-4.13zm-3.4,-19.24l0,2l2.18,0l0,-2l-2.18,0zm4.63,0l0,2l2.17,0l0,-2l-2.17,0zm-10.7,50.1l23.85,0l0,26.41l-23.85,0l0,2l24.86,0c0.56,0 1.02,-0.45 1,-1.01l0,-28.41c0,-0.54 -0.44,-0.99 -1,-0.99l-24.86,0l0,2zm0,4.13l19.43,-0.01l0,6.49l-19.43,0l0,2.01l20.44,-0.01c0.56,0 1,-0.45 0.99,-0.99l0,-8.49c0,-0.54 -0.44,-0.99 -1.01,-0.99l-20.42,-0.01l0,2zm1.08,1.24l0,2l1.88,0l0,1.11l1.7,0l-0.01,-1.11l2.09,0l0,1.11l1.7,0l0,-1.11l2.08,0l0,1.11l1.7,0l0,-1.11l2.09,0l0,1.11l1.69,0l0,-1.11l1.88,0l0,-2l-16.8,0zm-1.08,10.44l19.43,0l0,6.49l-19.43,-0.01l0,2.01l20.44,0c0.56,0 1,-0.45 0.99,-1l0,-8.49c0,-0.54 -0.44,-0.99 -1.01,-0.99l-20.42,0l0,1.99zm1.08,1.24l0,2l1.88,0l0,1.11l1.7,0l-0.01,-1.11l2.09,0l0,1.11l1.7,0l0,-1.11l2.08,0l0,1.11l1.7,0l0,-1.11l2.09,0l0,1.11l1.69,0l0,-1.11l1.88,0l0,-2l-16.8,0zm38.42,8.29c3.71,3.67 9.77,3.67 13.48,0l8.02,-7.93c3.49,-3.43 3.71,-8.88 0.68,-12.58l0.76,-0.75c2.78,-2.75 3.07,-7.02 0.91,-10.08c-0.36,-0.53 -1.12,-0.6 -1.56,-0.17c-0.36,0.36 -0.39,0.9 -0.11,1.31c1.62,2.29 1.39,5.48 -0.68,7.52l-0.75,0.75c-3.73,-3 -9.24,-2.77 -12.72,0.67l-8.03,7.94c-3.72,3.66 -3.72,9.64 0,13.32zm20.07,-19.84c2.93,2.89 2.93,7.6 0.02,10.49l-8.03,7.94c-2.92,2.89 -7.7,2.89 -10.62,0c-2.93,-2.9 -2.93,-7.62 0,-10.51l8.01,-7.92c2.92,-2.9 7.7,-2.9 10.62,0zm-5.88,5.81c0.38,0.4 1.03,0.4 1.43,0l1.54,-1.52c0.4,-0.39 0.4,-1.02 0,-1.41c-0.4,-0.4 -1.03,-0.4 -1.43,0l-1.54,1.52c-0.4,0.39 -0.4,1.02 0,1.41zm44.44,16.74l0,-7.19c0,-6.9 -5.68,-12.51 -12.65,-12.51l-3.3,0l0,-10l22.97,0l0,29.7l-7.02,0zm-15.95,-17.72l3.3,0c5.85,0 10.62,4.71 10.62,10.51l0,7.21l-13.92,0l0,-17.72zm23.99,19.72c0.54,0 1,-0.44 1,-0.99l0,-31.7c0,-0.54 -0.44,-1 -1,-1l-24.99,0c-0.55,0 -1.01,0.44 -1.01,1l0,11.98l0,19.72c0,0.54 0.45,0.99 1.01,0.99l15.93,0l9.06,0zm-15.89,-25.15l-0.22,0.89c0.27,0.15 0.8,0.28 1.33,0.28c1.28,0 1.89,-0.66 1.89,-1.44c0,-0.64 -0.38,-1.06 -1.21,-1.37c-0.61,-0.23 -0.87,-0.36 -0.87,-0.66c0,-0.25 0.22,-0.45 0.68,-0.45c0.45,0 0.78,0.13 0.97,0.22l0.24,-0.85c-0.28,-0.12 -0.67,-0.23 -1.2,-0.23c-1.11,0 -1.77,0.6 -1.77,1.39c0,0.67 0.5,1.09 1.28,1.36c0.57,0.2 0.79,0.36 0.79,0.65c0,0.3 -0.25,0.5 -0.74,0.5c-0.45,0 -0.89,-0.15 -1.17,-0.29zm3.74,0l-0.22,0.89c0.26,0.15 0.8,0.28 1.33,0.28c1.28,0 1.89,-0.66 1.89,-1.44c0,-0.64 -0.38,-1.06 -1.21,-1.37c-0.61,-0.23 -0.87,-0.36 -0.87,-0.66c0,-0.25 0.22,-0.45 0.68,-0.45c0.45,0 0.78,0.13 0.97,0.22l0.24,-0.85c-0.28,-0.12 -0.67,-0.23 -1.2,-0.23c-1.11,0 -1.77,0.6 -1.77,1.39c0,0.67 0.5,1.09 1.28,1.36c0.56,0.2 0.79,0.36 0.79,0.65c0,0.3 -0.26,0.5 -0.74,0.5c-0.45,0 -0.89,-0.15 -1.17,-0.29zm3.71,-3.48l0,4.53c0.27,0.04 0.65,0.07 1.2,0.07c0.91,0 1.67,-0.19 2.15,-0.6c0.46,-0.38 0.79,-0.99 0.79,-1.87c0,-0.82 -0.3,-1.39 -0.79,-1.74c-0.44,-0.33 -1.02,-0.49 -1.9,-0.49c-0.55,0 -1.07,0.04 -1.45,0.1zm1.08,3.77l0,-3.03c0.09,-0.02 0.23,-0.04 0.47,-0.04c0.9,0 1.46,0.5 1.46,1.46c0,1.11 -0.62,1.62 -1.58,1.62c-0.13,0 -0.26,0 -0.35,-0.01zm166.86,-22.33c-9.57,0 -17.34,-7.69 -17.34,-17.14c0,-9.46 7.77,-17.15 17.34,-17.15c9.56,0 17.33,7.69 17.33,17.15c0,9.45 -7.77,17.14 -17.33,17.14zm0,-32.29c-8.44,0 -15.32,6.8 -15.32,15.15c0,8.34 6.88,15.14 15.32,15.14c8.43,0 15.31,-6.8 15.31,-15.14c0,-8.36 -6.88,-15.15 -15.31,-15.15zm0,19.21c-2.28,0 -4.13,-1.83 -4.13,-4.08s1.85,-4.08 4.13,-4.08c2.27,0 4.12,1.83 4.12,4.08s-1.85,4.08 -4.12,4.08zm0,-6.14c-1.16,0 -2.1,0.94 -2.1,2.08c0,1.14 0.94,2.07 2.1,2.07c1.15,0 2.09,-0.93 2.09,-2.07c0,-1.14 -0.94,-2.08 -2.09,-2.08zm0,9.08c-3.91,0 -7.08,-3.15 -7.08,-7c0,-3.86 3.17,-7.01 7.08,-7.01c3.9,0 7.07,3.15 7.07,7.01c0,3.85 -3.17,7 -7.07,7zm0,-12c-2.8,0 -5.06,2.23 -5.06,5c0,2.76 2.26,4.99 5.06,4.99c2.79,0 5.05,-2.23 5.05,-4.99c0,-2.77 -2.26,-5 -5.05,-5zm-55.28,-5.47l0,2.53l3.37,0l0,-2.53l-3.37,0zm23.59,0l0,2.53l3.37,0l0,-2.53l-3.37,0zm6.49,25.47c0.56,0 1,-0.45 1,-1l0,-27.45c0,-0.54 -0.44,-0.99 -1,-0.99l-32.8,0c-0.54,0 -1,0.43 -1,0.99l0,27.46c0,0.54 0.44,0.99 1,0.99l32.8,0zm-31.79,-2l0,-25.44l9.78,0l0,3.1l-1.8,0c-0.55,0 -1,0.43 -1,0.99l0,3.27l-3.58,0c-0.55,0 -1.01,0.44 -1.01,1l0,12.76c0,0.54 0.45,0.99 1.01,0.99l23.98,0c0.57,0 1.01,-0.45 0.98,-0.99l0,-12.76c0,-0.54 -0.44,-1 -1.01,-1l-3.57,0l0,-3.27c0,-0.54 -0.45,-0.99 -1.01,-0.99l-1.58,0l0,-3.1l9.58,0l0,25.44l-30.77,0zm11.82,-25.44l7.38,0l0,4.09c0,0.54 0.44,0.99 1,0.99l1.58,0l0,3.28c0,0.54 0.45,0.99 1.01,0.99l3.57,0l0,10.76l-21.96,0l0,-10.76l3.61,0c0.55,0 1,-0.44 1,-0.99l0,-3.28l1.81,0c0.54,0 1,-0.43 1,-0.99l0,-4.09zm-63.83,2.72c0.57,0 1.02,-0.46 1.01,-1c0,-0.54 -0.44,-0.99 -1.01,-0.99l-4.8,0l0,-0.61c0,-0.55 -0.44,-1 -1,-1l-0.62,0l0,-4.75c0,-0.54 -0.45,-0.99 -1.01,-0.99c-0.55,0 -1,0.44 -1,0.99l0,4.75l-2.03,0l0,-4.75c0,-0.54 -0.44,-0.99 -1,-0.99c-0.55,0 -1.01,0.44 -1.01,0.99l0,4.75l-2.04,0l0,-4.75c0,-0.54 -0.44,-0.99 -1,-0.99c-0.55,0 -1.01,0.44 -1.01,0.99l0,4.75l-2.04,0l0,-4.75c0,-0.54 -0.44,-0.99 -1,-0.99c-0.55,0 -1.01,0.44 -1.01,0.99l0,4.75l-2.02,0l0,-4.75c0,-0.54 -0.44,-0.99 -1.01,-0.99c-0.54,0 -1,0.44 -1,0.99l0,4.75l-2.04,0l0,-4.75c0,-0.54 -0.44,-0.99 -1.01,-0.99c-0.54,0 -1,0.44 -1,0.99l0,4.75l-0.62,0c-0.55,0 -1.01,0.44 -1.01,1l0,0.61l-4.38,0c-0.55,0 -1.01,0.44 -1.01,0.99c0,0.54 0.44,1 1.01,1l4.38,0l0,2.01l-4.38,0c-0.55,0 -1.01,0.44 -1.01,1c0,0.54 0.44,0.99 1.01,0.99l4.38,0l0,2.02l-4.38,0c-0.55,0 -1.01,0.44 -1.01,0.99c0,0.54 0.44,1 1.01,1l4.38,0l0,2l-4.38,0c-0.55,0 -1.01,0.44 -1.01,0.99c0,0.54 0.44,1 1.01,1l4.38,0l0,2.01l-4.38,0c-0.55,0 -1.01,0.44 -1.01,1c0,0.54 0.44,0.99 1.01,0.99l4.38,0l0,2.02l-4.38,0c-0.55,0 -1.01,0.44 -1.01,0.99c0,0.54 0.44,0.99 1.01,0.99l4.38,0l0,0.6c0,0.54 0.45,1 1.01,1l0.62,0l0,4.34c0,0.54 0.44,0.99 1,0.99c0.57,0 1.01,-0.44 1.01,-0.99l0,-4.34l2.04,0l0,4.34c0,0.54 0.44,0.99 1,0.99c0.55,0 1.01,-0.44 1.01,-0.99l0,-4.34l2.02,0l0,4.34c0,0.54 0.45,0.99 1.01,0.99c0.56,0 1.02,-0.44 1,-0.99l0,-4.34l2.04,0l0,4.34c0,0.54 0.45,0.99 1.01,0.99s1,-0.44 1,-0.99l0,-4.34l2.04,0l0,4.34c0,0.54 0.45,0.99 1.01,0.99c0.54,0 1,-0.44 1,-0.99l0,-4.34l2.03,0l0,4.34c0,0.54 0.44,0.99 1,0.99s1.02,-0.44 1.01,-0.99l0,-4.34l0.62,0c0.56,0 1,-0.44 1,-1l0,-0.6l4.8,0c0.57,0 1.02,-0.45 1.01,-0.99c0,-0.54 -0.44,-0.99 -1.01,-0.99l-4.8,0l0,-2.02l4.8,0c0.57,0 1.02,-0.45 1.01,-0.99c0,-0.54 -0.44,-1 -1.01,-1l-4.8,0l0,-2.01l4.8,0c0.57,0 1.02,-0.44 1.01,-1c0,-0.54 -0.44,-0.99 -1.01,-0.99l-4.8,0l0,-2l4.8,0c0.57,0 1.02,-0.46 1.01,-1c0,-0.54 -0.44,-0.99 -1.01,-0.99l-4.8,0l0,-2.02l4.8,0c0.57,0 1.02,-0.45 1.01,-0.99c0,-0.54 -0.44,-1 -1.01,-1l-4.8,0l0,-2.01l4.8,0zm-28.25,19.6l0,-21.21l21.44,0l0,21.21l-21.44,0zm53.05,3.82c3.43,0 6.22,-2.76 6.21,-6.13c0,-3.38 -2.78,-6.14 -6.21,-6.14c-3.41,0 -6.2,2.75 -6.2,6.14c0,3.37 2.77,6.13 6.2,6.13zm0,-10.28c2.32,0 4.2,1.85 4.19,4.13c0,2.28 -1.88,4.14 -4.19,4.14c-2.3,0 -4.18,-1.86 -4.18,-4.14s1.88,-4.13 4.18,-4.13zm-3.4,-19.24l0,2l2.18,0l0,-2l-2.18,0zm4.63,0l0,2l2.17,0l0,-2l-2.17,0zm-1.23,34.96c5.87,0 10.64,-4.72 10.63,-10.52l0,-18.58c0,-0.54 -0.44,-0.99 -1.01,-0.99l-1.49,0l0,-8.73c0,-0.54 -0.44,-0.99 -1,-0.99l-14.25,0c-0.55,0 -1.01,0.44 -1.01,0.99l0,8.73l-1.5,0c-0.55,0 -1.01,0.44 -1.01,0.99l0,18.58c0,5.8 4.78,10.52 10.64,10.52zm-8.61,-28.1l1.49,0l14.25,0l1.49,0l0,17.56c0,4.69 -3.86,8.52 -8.62,8.52c-4.74,0 -8.61,-3.81 -8.61,-8.52l0,-17.56zm2.49,-2.01l0,-7.71l12.24,0l0,7.71l-12.24,0zm-40.35,46.26l0,3.86l2.02,0l0,-3.86l-2.02,0zm3.48,0l0,3.86l2.03,0l0,-3.86l-2.03,0zm3.51,0l0,3.86l2.02,0l0,-3.86l-2.02,0zm3.48,0l0,3.86l2.03,0l0,-3.86l-2.03,0zm6.06,28.21c0.55,0 1.01,-0.44 1.01,-1l0,-11.43c0,-0.54 -0.45,-0.99 -1.01,-0.99l-0.16,0l0,-4.28l0.16,0c0.55,0 1.01,-0.44 1.01,-1l0,-12.32c0,-0.54 -0.45,-0.99 -1.01,-0.99l-17.81,0c-0.26,0 -0.51,0.1 -0.71,0.29l-6.56,6.49c-0.19,0.18 -0.29,0.44 -0.29,0.7l0,4.26c0,0.54 0.44,0.99 1,0.99l0.46,0l0,0.29l-0.46,0c-0.54,0 -1,0.44 -1,1l0,16.99c0,0.54 0.44,1 1,1l24.37,0zm-23.36,-2.01l0,-14.99l0.46,0c0.54,0 1,-0.44 1,-0.99l0,-2.3c0,-0.54 -0.44,-0.99 -1,-0.99l-0.46,0l0,-2.85l5.97,-5.89l16.37,0l0,10.32l-0.16,0c-0.55,0 -1.01,0.43 -1.01,0.99l0,6.28c0,0.55 0.45,1 1.01,1l0.16,0l0,9.42l-22.34,0zm44.91,-21.84l0,2l1.88,0l0,1.11l1.7,0l-0.01,-1.11l2.09,0l0,1.11l1.7,0l0,-1.11l2.08,0l0,1.11l1.7,0l0,-1.11l2.09,0l0,1.11l1.69,0l0,-1.11l1.88,0l0,-2l-16.8,0zm19.36,7.24c0.56,0 1,-0.45 0.99,-0.99l0,-8.49c0,-0.54 -0.44,-0.99 -1.01,-0.99l-21.91,0c-0.55,0 -1.01,0.43 -1.01,0.99l0,8.49c0,0.54 0.45,0.99 1.01,0.99l21.93,0zm-20.91,-2l0,-6.49l19.9,0l0,6.49l-19.9,0zm1.55,6.44l0,2l1.88,0l0,1.11l1.7,0l-0.01,-1.11l2.09,0l0,1.11l1.7,0l0,-1.11l2.08,0l0,1.11l1.7,0l0,-1.11l2.09,0l0,1.11l1.69,0l0,-1.11l1.88,0l0,-2l-16.8,0zm19.36,7.25c0.56,0 1,-0.45 0.99,-1l0,-8.49c0,-0.54 -0.44,-0.99 -1.01,-0.99l-21.91,0c-0.55,0 -1.01,0.44 -1.01,0.99l0,8.49c0,0.55 0.45,1 1.01,1l21.93,0zm-20.91,-2l0,-6.49l19.9,0l0,6.49l-19.9,0zm25.33,6.11c0.56,0 1.02,-0.45 1,-1.01l0,-28.41c0,-0.54 -0.44,-0.99 -1,-0.99l-30.77,0c-0.55,0 -1.01,0.44 -1.01,0.99l0,28.43c0,0.54 0.45,0.99 1.01,0.99l30.77,0zm-29.75,-2l0,-26.41l28.74,0l0,26.41l-28.74,0zm58.58,-15.1c0.38,0.4 1.03,0.4 1.43,0l1.54,-1.52c0.4,-0.39 0.4,-1.02 0,-1.41c-0.4,-0.4 -1.03,-0.4 -1.43,0l-1.54,1.52c-0.4,0.39 -0.4,1.02 0,1.41zm-14.19,14.03c3.71,3.67 9.77,3.67 13.48,0l8.02,-7.93c3.49,-3.43 3.71,-8.88 0.68,-12.58l0.76,-0.75c2.78,-2.75 3.07,-7.02 0.91,-10.08c-0.36,-0.53 -1.12,-0.6 -1.56,-0.17c-0.36,0.36 -0.39,0.9 -0.11,1.31c1.62,2.29 1.39,5.48 -0.68,7.52l-0.75,0.75c-3.73,-3 -9.24,-2.77 -12.72,0.67l-8.03,7.94c-3.72,3.66 -3.72,9.64 0,13.32zm20.07,-19.84c2.93,2.89 2.93,7.6 0.02,10.49l-8.03,7.94c-2.92,2.89 -7.7,2.89 -10.62,0c-2.93,-2.9 -2.93,-7.62 0,-10.51l8.01,-7.92c2.92,-2.9 7.7,-2.9 10.62,0zm30.71,-0.6l-0.22,0.89c0.27,0.15 0.8,0.28 1.33,0.28c1.28,0 1.89,-0.66 1.89,-1.44c0,-0.64 -0.38,-1.06 -1.21,-1.37c-0.61,-0.23 -0.87,-0.36 -0.87,-0.66c0,-0.25 0.22,-0.45 0.68,-0.45c0.45,0 0.78,0.13 0.97,0.22l0.24,-0.85c-0.28,-0.12 -0.67,-0.23 -1.2,-0.23c-1.11,0 -1.77,0.6 -1.77,1.39c0,0.67 0.5,1.09 1.28,1.36c0.57,0.2 0.79,0.36 0.79,0.65c0,0.3 -0.25,0.5 -0.74,0.5c-0.45,0 -0.89,-0.15 -1.17,-0.29zm3.74,0l-0.22,0.89c0.26,0.15 0.8,0.28 1.33,0.28c1.28,0 1.89,-0.66 1.89,-1.44c0,-0.64 -0.38,-1.06 -1.21,-1.37c-0.61,-0.23 -0.87,-0.36 -0.87,-0.66c0,-0.25 0.22,-0.45 0.68,-0.45c0.45,0 0.78,0.13 0.97,0.22l0.24,-0.85c-0.28,-0.12 -0.67,-0.23 -1.2,-0.23c-1.11,0 -1.77,0.6 -1.77,1.39c0,0.67 0.5,1.09 1.28,1.36c0.56,0.2 0.79,0.36 0.79,0.65c0,0.3 -0.26,0.5 -0.74,0.5c-0.45,0 -0.89,-0.15 -1.17,-0.29zm3.72,-3.48l-0.01,0l0,4.53c0.27,0.04 0.65,0.07 1.2,0.07c0.91,0 1.67,-0.19 2.15,-0.6c0.46,-0.38 0.79,-0.99 0.79,-1.87c0,-0.82 -0.3,-1.39 -0.79,-1.74c-0.44,-0.33 -1.02,-0.49 -1.9,-0.49c-0.55,0 -1.05,0.04 -1.44,0.1zm1.05,3.77l0.02,0l0,-3.03c0.09,-0.02 0.23,-0.04 0.47,-0.04c0.9,0 1.46,0.5 1.46,1.46c0,1.11 -0.62,1.62 -1.58,1.62c-0.13,0 -0.28,0 -0.37,-0.01zm-0.66,22.86l0,-7.19c0,-6.9 -5.68,-12.51 -12.65,-12.51l-3.3,0l0,-10l22.97,0l0,29.7l-7.02,0zm-15.95,-17.72l3.3,0c5.85,0 10.62,4.71 10.62,10.51l0,7.21l-13.92,0l0,-17.72zm23.99,19.72c0.54,0 1,-0.44 1,-0.99l0,-31.7c0,-0.54 -0.44,-1 -1,-1l-24.99,0c-0.55,0 -1.01,0.44 -1.01,1l0,11.98l0,19.72c0,0.54 0.45,0.99 1.01,0.99l15.93,0l9.06,0zm50.5,-74.05c0.57,0 1.02,-0.46 1.01,-1c0,-0.54 -0.44,-0.99 -1.01,-0.99l-4.8,0l0,-0.61c0,-0.55 -0.44,-1 -1,-1l-0.62,0l0,-4.75c0,-0.54 -0.45,-0.99 -1.01,-0.99c-0.55,0 -1,0.44 -1,0.99l0,4.75l-2.03,0l0,-4.75c0,-0.54 -0.44,-0.99 -1,-0.99c-0.55,0 -1.01,0.44 -1.01,0.99l0,4.75l-2.04,0l0,-4.75c0,-0.54 -0.44,-0.99 -1,-0.99c-0.55,0 -1.01,0.44 -1.01,0.99l0,4.75l-2.04,0l0,-4.75c0,-0.54 -0.44,-0.99 -1,-0.99c-0.55,0 -1.01,0.44 -1.01,0.99l0,4.75l-2.02,0l0,-4.75c0,-0.54 -0.44,-0.99 -1.01,-0.99c-0.54,0 -1,0.44 -1,0.99l0,4.75l-2.04,0l0,-4.75c0,-0.54 -0.44,-0.99 -1.01,-0.99c-0.54,0 -1,0.44 -1,0.99l0,4.75l-0.62,0c-0.55,0 -1.01,0.44 -1.01,1l0,0.61l-4.38,0c-0.55,0 -1.01,0.44 -1.01,0.99c0,0.54 0.44,1 1.01,1l4.38,0l0,2.01l-4.38,0c-0.55,0 -1.01,0.44 -1.01,1c0,0.54 0.44,0.99 1.01,0.99l4.38,0l0,2.02l-4.38,0c-0.55,0 -1.01,0.44 -1.01,0.99c0,0.54 0.44,1 1.01,1l4.38,0l0,2l-4.38,0c-0.55,0 -1.01,0.44 -1.01,0.99c0,0.54 0.44,1 1.01,1l4.38,0l0,2.01l-4.38,0c-0.55,0 -1.01,0.44 -1.01,1c0,0.54 0.44,0.99 1.01,0.99l4.38,0l0,2.02l-4.38,0c-0.55,0 -1.01,0.44 -1.01,0.99c0,0.54 0.44,0.99 1.01,0.99l4.38,0l0,0.6c0,0.54 0.45,1 1.01,1l0.62,0l0,4.34c0,0.54 0.44,0.99 1,0.99c0.57,0 1.01,-0.44 1.01,-0.99l0,-4.34l2.04,0l0,4.34c0,0.54 0.44,0.99 1,0.99c0.55,0 1.01,-0.44 1.01,-0.99l0,-4.34l2.02,0l0,4.34c0,0.54 0.45,0.99 1.01,0.99s1.02,-0.44 1,-0.99l0,-4.34l2.04,0l0,4.34c0,0.54 0.45,0.99 1.01,0.99s1,-0.44 1,-0.99l0,-4.34l2.04,0l0,4.34c0,0.54 0.45,0.99 1.01,0.99c0.54,0 1,-0.44 1,-0.99l0,-4.34l2.03,0l0,4.34c0,0.54 0.44,0.99 1,0.99s1.02,-0.44 1.01,-0.99l0,-4.34l0.62,0c0.56,0 1,-0.44 1,-1l0,-0.6l4.8,0c0.57,0 1.02,-0.45 1.01,-0.99c0,-0.54 -0.44,-0.99 -1.01,-0.99l-4.8,0l0,-2.02l4.8,0c0.57,0 1.02,-0.45 1.01,-0.99c0,-0.54 -0.44,-1 -1.01,-1l-4.8,0l0,-2.01l4.8,0c0.57,0 1.02,-0.44 1.01,-1c0,-0.54 -0.44,-0.99 -1.01,-0.99l-4.8,0l0,-2l4.8,0c0.57,0 1.02,-0.46 1.01,-1c0,-0.54 -0.44,-0.99 -1.01,-0.99l-4.8,0l0,-2.02l4.8,0c0.57,0 1.02,-0.45 1.01,-0.99c0,-0.54 -0.44,-1 -1.01,-1l-4.8,0l0,-2.01l4.8,0zm-28.25,19.6l0,-21.21l21.44,0l0,21.21l-21.44,0zm53.05,9.26c5.87,0 10.64,-4.72 10.63,-10.52l0,-18.58c0,-0.54 -0.44,-0.99 -1.01,-0.99l-1.49,0l0,-8.73c0,-0.54 -0.44,-0.99 -1,-0.99l-14.25,0c-0.55,0 -1.01,0.44 -1.01,0.99l0,8.73l-1.5,0c-0.55,0 -1.01,0.44 -1.01,0.99l0,18.58c0,5.8 4.78,10.52 10.64,10.52zm-8.61,-28.1l1.49,0l14.25,0l1.49,0l0,17.56c0,4.69 -3.86,8.52 -8.62,8.52c-4.74,0 -8.61,-3.81 -8.61,-8.52l0,-17.56zm2.49,-2.01l0,-7.71l12.24,0l0,7.71l-12.24,0zm6.12,24.67c3.43,0 6.22,-2.76 6.21,-6.13c0,-3.38 -2.78,-6.14 -6.21,-6.14c-3.41,0 -6.2,2.75 -6.2,6.14c0,3.37 2.77,6.13 6.2,6.13zm0,-10.28c2.32,0 4.2,1.85 4.19,4.13c0,2.28 -1.88,4.14 -4.19,4.14c-2.3,0 -4.18,-1.86 -4.18,-4.14s1.88,-4.13 4.18,-4.13zm-3.4,-19.24l0,2l2.18,0l0,-2l-2.18,0zm4.63,0l0,2l2.17,0l0,-2l-2.17,0zm-31.17,79.32c0.55,0 1.01,-0.44 1.01,-1l0,-11.43c0,-0.54 -0.45,-0.99 -1.01,-0.99l-0.16,0l0,-4.28l0.16,0c0.55,0 1.01,-0.44 1.01,-1l0,-12.32c0,-0.54 -0.45,-0.99 -1.01,-0.99l-17.81,0c-0.26,0 -0.51,0.1 -0.71,0.29l-6.56,6.49c-0.19,0.18 -0.29,0.44 -0.29,0.7l0,4.26c0,0.54 0.44,0.99 1,0.99l0.46,0l0,0.29l-0.46,0c-0.54,0 -1,0.44 -1,1l0,16.99c0,0.54 0.44,1 1,1l24.37,0zm-23.36,-2.01l0,-14.99l0.46,0c0.54,0 1,-0.44 1,-0.99l0,-2.3c0,-0.54 -0.44,-0.99 -1,-0.99l-0.46,0l0,-2.85l5.97,-5.89l16.37,0l0,10.32l-0.16,0c-0.55,0 -1.01,0.43 -1.01,0.99l0,6.28c0,0.55 0.45,1 1.01,1l0.16,0l0,9.42l-22.34,0zm6.83,-26.2l0,3.86l2.02,0l0,-3.86l-2.02,0zm3.48,0l0,3.86l2.03,0l0,-3.86l-2.03,0zm3.51,0l0,3.86l2.02,0l0,-3.86l-2.02,0zm3.48,0l0,3.86l2.03,0l0,-3.86l-2.03,0zm51.39,27.4c0.56,0 1.02,-0.45 1,-1.01l0,-28.41c0,-0.54 -0.44,-0.99 -1,-0.99l-30.77,0c-0.55,0 -1.01,0.44 -1.01,0.99l0,28.43c0,0.54 0.45,0.99 1.01,0.99l30.77,0zm-29.75,-2l0,-26.41l28.74,0l0,26.41l-28.74,0zm25.33,-13.8c0.56,0 1,-0.45 0.99,-0.99l0,-8.49c0,-0.54 -0.44,-0.99 -1.01,-0.99l-21.91,0c-0.55,0 -1.01,0.43 -1.01,0.99l0,8.49c0,0.54 0.45,0.99 1.01,0.99l21.93,0zm-20.91,-2l0,-6.49l19.9,0l0,6.49l-19.9,0zm1.55,-5.24l0,2l1.88,0l0,1.11l1.7,0l0,-1.11l2.08,0l0,1.11l1.7,0l0,-1.11l2.08,0l0,1.11l1.7,0l0,-1.11l2.09,0l0,1.11l1.69,0l0,-1.11l1.88,0l0,-2l-16.8,0zm19.36,18.93c0.56,0 1,-0.45 0.99,-1l0,-8.49c0,-0.54 -0.44,-0.99 -1.01,-0.99l-21.91,0c-0.55,0 -1.01,0.44 -1.01,0.99l0,8.49c0,0.55 0.45,1 1.01,1l21.93,0zm-20.91,-2l0,-6.49l19.9,0l0,6.49l-19.9,0zm1.55,-5.25l0,2l1.88,0l0,1.11l1.7,0l0,-1.11l2.08,0l0,1.11l1.7,0l0,-1.11l2.08,0l0,1.11l1.7,0l0,-1.11l2.09,0l0,1.11l1.69,0l0,-1.11l1.88,0l0,-2l-16.8,0z" fill="#B7C7C8" clip-rule="evenodd" fill-rule="evenodd"/>
  <path id="svg_5" d="m100.67,111.81c9.56,0 17.33,-7.69 17.33,-17.14c0,-9.46 -7.77,-17.15 -17.33,-17.15c-9.57,0 -17.34,7.69 -17.34,17.15c0,9.45 7.77,17.14 17.34,17.14zm0,-32.29c8.43,0 15.31,6.79 15.31,15.15c0,8.34 -6.88,15.14 -15.31,15.14c-8.44,0 -15.32,-6.8 -15.32,-15.14c0,-8.35 6.88,-15.15 15.32,-15.15zm0,22.15c3.9,0 7.07,-3.15 7.07,-7c0,-3.86 -3.17,-7.01 -7.07,-7.01c-3.91,0 -7.08,3.15 -7.08,7.01c0,3.85 3.17,7 7.08,7zm0,-12c2.79,0 5.05,2.23 5.05,5c0,2.76 -2.26,4.99 -5.05,4.99c-2.8,0 -5.06,-2.23 -5.06,-4.99c0,-2.77 2.26,-5 5.06,-5zm0,9.06c2.27,0 4.12,-1.83 4.12,-4.08s-1.85,-4.08 -4.12,-4.08c-2.28,0 -4.13,1.83 -4.13,4.08s1.85,4.08 4.13,4.08zm0,-6.14c1.15,0 2.09,0.94 2.09,2.08s-0.94,2.07 -2.09,2.07c-1.16,0 -2.1,-0.93 -2.1,-2.07s0.94,-2.08 2.1,-2.08zm-25.2,17.08c0.56,0 1,-0.45 1,-1l0,-27.45c0,-0.54 -0.44,-0.99 -1,-0.99l-32.8,0c-0.54,0 -1,0.43 -1,0.99l0,27.46c0,0.54 0.44,0.99 1,0.99l32.8,0zm-31.79,-2l0,-25.44l9.78,0l0,3.1l-1.8,0c-0.55,0 -1,0.43 -1,0.99l0,3.27l-3.58,0c-0.55,0 -1.01,0.44 -1.01,1l0,12.76c0,0.54 0.45,0.99 1.01,0.99l23.98,0c0.57,0 1.01,-0.45 0.98,-0.99l0,-12.76c0,-0.54 -0.44,-1 -1.01,-1l-3.57,0l0,-3.27c0,-0.54 -0.45,-0.99 -1.01,-0.99l-1.58,0l0,-3.1l9.58,0l0,25.44l-30.77,0zm11.82,-25.44l7.38,0l0,4.09c0,0.54 0.44,0.99 1,0.99l1.58,0l0,3.28c0,0.54 0.45,0.99 1.01,0.99l3.57,0l0,10.76l-21.96,0l0,-10.76l3.61,0c0.55,0 1,-0.44 1,-0.99l0,-3.28l1.81,0c0.54,0 1,-0.43 1,-0.99l0,-4.09zm-10.11,1.97l0,2.53l3.37,0l0,-2.53l-3.37,0zm23.59,0l0,2.53l3.37,0l0,-2.53l-3.37,0zm-52.51,29.61c5.87,0 10.64,-4.72 10.63,-10.52l0,-18.58c0,-0.54 -0.44,-0.99 -1.01,-0.99l-1.49,0l0,-8.73c0,-0.54 -0.44,-0.99 -1,-0.99l-14.25,0c-0.55,0 -1.01,0.44 -1.01,0.99l0,8.73l-1.5,0c-0.55,0 -1.01,0.44 -1.01,0.99l0,18.58c0,5.8 4.78,10.52 10.64,10.52zm-8.61,-28.1l1.49,0l14.25,0l1.49,0l0,17.56c0,4.69 -3.86,8.52 -8.62,8.52c-4.74,0 -8.61,-3.81 -8.61,-8.52l0,-17.56zm2.49,-2.01l0,-7.71l12.24,0l0,7.71l-12.24,0zm6.12,24.67c3.43,0 6.22,-2.76 6.21,-6.13c0,-3.38 -2.78,-6.14 -6.21,-6.14c-3.41,0 -6.2,2.75 -6.2,6.14c0,3.37 2.77,6.13 6.2,6.13zm0,-10.28c2.32,0 4.2,1.85 4.19,4.13c0,2.28 -1.88,4.14 -4.19,4.14c-2.3,0 -4.18,-1.86 -4.18,-4.14s1.88,-4.13 4.18,-4.13zm-3.4,-19.24l0,2l2.18,0l0,-2l-2.18,0zm4.63,0l0,2l2.17,0l0,-2l-2.17,0zm14.16,78.51c0.56,0 1.02,-0.45 1,-1.01l0,-28.41c0,-0.54 -0.44,-0.99 -1,-0.99l-30.77,0c-0.55,0 -1.01,0.44 -1.01,0.99l0,28.43c0,0.54 0.45,0.99 1.01,0.99l30.77,0zm-29.75,-2l0,-26.41l28.74,0l0,26.41l-28.74,0zm25.33,-13.8c0.56,0 1,-0.45 0.99,-0.99l0,-8.49c0,-0.54 -0.44,-0.99 -1.01,-0.99l-21.91,0c-0.55,0 -1.01,0.43 -1.01,0.99l0,8.49c0,0.54 0.45,0.99 1.01,0.99l21.93,0zm-20.91,-2l0,-6.49l19.9,0l0,6.49l-19.9,0zm1.55,-5.24l0,2l1.88,0l0,1.11l1.7,0l-0.01,-1.11l2.09,0l0,1.11l1.7,0l0,-1.11l2.08,0l0,1.11l1.7,0l0,-1.11l2.09,0l0,1.11l1.69,0l0,-1.11l1.88,0l0,-2l-16.8,0zm19.36,18.93c0.56,0 1,-0.45 0.99,-1l0,-8.49c0,-0.54 -0.44,-0.99 -1.01,-0.99l-21.91,0c-0.55,0 -1.01,0.44 -1.01,0.99l0,8.49c0,0.55 0.45,1 1.01,1l21.93,0zm-20.91,-2l0,-6.49l19.9,0l0,6.49l-19.9,0zm1.55,-5.25l0,2l1.88,0l0,1.11l1.7,0l-0.01,-1.11l2.09,0l0,1.11l1.7,0l0,-1.11l2.08,0l0,1.11l1.7,0l0,-1.11l2.09,0l0,1.11l1.69,0l0,-1.11l1.88,0l0,-2l-16.8,0zm38.42,8.29c3.71,3.67 9.77,3.67 13.48,0l8.02,-7.93c3.49,-3.43 3.71,-8.88 0.68,-12.58l0.76,-0.75c2.78,-2.75 3.07,-7.02 0.91,-10.08c-0.36,-0.53 -1.12,-0.6 -1.56,-0.17c-0.36,0.36 -0.39,0.9 -0.11,1.31c1.62,2.29 1.39,5.48 -0.68,7.52l-0.75,0.75c-3.73,-3 -9.24,-2.77 -12.72,0.67l-8.03,7.94c-3.72,3.66 -3.72,9.64 0,13.32zm20.07,-19.84c2.93,2.89 2.93,7.6 0.02,10.49l-8.03,7.94c-2.92,2.89 -7.7,2.89 -10.62,0c-2.93,-2.9 -2.93,-7.62 0,-10.51l8.01,-7.92c2.92,-2.9 7.7,-2.9 10.62,0zm-5.88,5.81c0.38,0.4 1.03,0.4 1.43,0l1.54,-1.52c0.4,-0.39 0.4,-1.02 0,-1.41c-0.4,-0.4 -1.03,-0.4 -1.43,0l-1.54,1.52c-0.4,0.39 -0.4,1.02 0,1.41zm44.44,16.74l0,-7.19c0,-6.9 -5.68,-12.51 -12.65,-12.51l-3.3,0l0,-10l22.97,0l0,29.7l-7.02,0zm-15.95,-17.72l3.3,0c5.85,0 10.62,4.71 10.62,10.51l0,7.21l-13.92,0l0,-17.72zm23.99,19.72c0.54,0 1,-0.44 1,-0.99l0,-31.7c0,-0.54 -0.44,-1 -1,-1l-24.99,0c-0.55,0 -1.01,0.44 -1.01,1l0,11.98l0,19.72c0,0.54 0.45,0.99 1.01,0.99l15.93,0l9.06,0zm-15.89,-25.15l-0.22,0.89c0.27,0.15 0.8,0.28 1.33,0.28c1.28,0 1.89,-0.66 1.89,-1.44c0,-0.64 -0.38,-1.06 -1.21,-1.37c-0.61,-0.23 -0.87,-0.36 -0.87,-0.66c0,-0.25 0.22,-0.45 0.68,-0.45c0.45,0 0.78,0.13 0.97,0.22l0.24,-0.85c-0.28,-0.12 -0.67,-0.23 -1.2,-0.23c-1.11,0 -1.77,0.6 -1.77,1.39c0,0.67 0.5,1.09 1.28,1.36c0.57,0.2 0.79,0.36 0.79,0.65c0,0.3 -0.25,0.5 -0.74,0.5c-0.45,0 -0.89,-0.15 -1.17,-0.29zm3.74,0l-0.22,0.89c0.26,0.15 0.8,0.28 1.33,0.28c1.28,0 1.89,-0.66 1.89,-1.44c0,-0.64 -0.38,-1.06 -1.21,-1.37c-0.61,-0.23 -0.87,-0.36 -0.87,-0.66c0,-0.25 0.22,-0.45 0.68,-0.45c0.45,0 0.78,0.13 0.97,0.22l0.24,-0.85c-0.28,-0.12 -0.67,-0.23 -1.2,-0.23c-1.11,0 -1.77,0.6 -1.77,1.39c0,0.67 0.5,1.09 1.28,1.36c0.56,0.2 0.79,0.36 0.79,0.65c0,0.3 -0.26,0.5 -0.74,0.5c-0.45,0 -0.89,-0.15 -1.17,-0.29zm3.71,-3.48l0,4.53c0.27,0.04 0.65,0.07 1.2,0.07c0.91,0 1.67,-0.19 2.15,-0.6c0.46,-0.38 0.79,-0.99 0.79,-1.87c0,-0.82 -0.3,-1.39 -0.79,-1.74c-0.44,-0.33 -1.02,-0.49 -1.9,-0.49c-0.55,0 -1.07,0.04 -1.45,0.1zm1.08,3.77l0,-3.03c0.09,-0.02 0.23,-0.04 0.47,-0.04c0.9,0 1.46,0.5 1.46,1.46c0,1.11 -0.62,1.62 -1.58,1.62c-0.13,0 -0.26,0 -0.35,-0.01zm166.86,-22.33c-9.57,0 -17.34,-7.69 -17.34,-17.14c0,-9.46 7.77,-17.15 17.34,-17.15c9.56,0 17.33,7.69 17.33,17.15c0,9.45 -7.77,17.14 -17.33,17.14zm0,-32.29c-8.44,0 -15.32,6.8 -15.32,15.15c0,8.34 6.88,15.14 15.32,15.14c8.43,0 15.31,-6.8 15.31,-15.14c0,-8.36 -6.88,-15.15 -15.31,-15.15zm0,19.21c-2.28,0 -4.13,-1.83 -4.13,-4.08s1.85,-4.08 4.13,-4.08c2.27,0 4.12,1.83 4.12,4.08s-1.85,4.08 -4.12,4.08zm0,-6.14c-1.16,0 -2.1,0.94 -2.1,2.08s0.94,2.07 2.1,2.07c1.15,0 2.09,-0.93 2.09,-2.07s-0.94,-2.08 -2.09,-2.08zm0,9.08c-3.91,0 -7.08,-3.15 -7.08,-7c0,-3.86 3.17,-7.01 7.08,-7.01c3.9,0 7.07,3.15 7.07,7.01c0,3.85 -3.17,7 -7.07,7zm0,-12c-2.8,0 -5.06,2.23 -5.06,5c0,2.76 2.26,4.99 5.06,4.99c2.79,0 5.05,-2.23 5.05,-4.99c0,-2.77 -2.26,-5 -5.05,-5zm-55.28,-5.47l0,2.53l3.37,0l0,-2.53l-3.37,0zm23.59,0l0,2.53l3.37,0l0,-2.53l-3.37,0zm6.49,25.47c0.56,0 1,-0.45 1,-1l0,-27.45c0,-0.54 -0.44,-0.99 -1,-0.99l-32.8,0c-0.54,0 -1,0.43 -1,0.99l0,27.46c0,0.54 0.44,0.99 1,0.99l32.8,0zm-31.79,-2l0,-25.44l9.78,0l0,3.1l-1.8,0c-0.55,0 -1,0.43 -1,0.99l0,3.27l-3.58,0c-0.55,0 -1.01,0.44 -1.01,1l0,12.76c0,0.54 0.45,0.99 1.01,0.99l23.98,0c0.57,0 1.01,-0.45 0.98,-0.99l0,-12.76c0,-0.54 -0.44,-1 -1.01,-1l-3.57,0l0,-3.27c0,-0.54 -0.45,-0.99 -1.01,-0.99l-1.58,0l0,-3.1l9.58,0l0,25.44l-30.77,0zm11.82,-25.44l7.38,0l0,4.09c0,0.54 0.44,0.99 1,0.99l1.58,0l0,3.28c0,0.54 0.45,0.99 1.01,0.99l3.57,0l0,10.76l-21.96,0l0,-10.76l3.61,0c0.55,0 1,-0.44 1,-0.99l0,-3.28l1.81,0c0.54,0 1,-0.43 1,-0.99l0,-4.09zm-63.83,2.72c0.57,0 1.02,-0.46 1.01,-1c0,-0.54 -0.44,-0.99 -1.01,-0.99l-4.8,0l0,-0.61c0,-0.55 -0.44,-1 -1,-1l-0.62,0l0,-4.75c0,-0.54 -0.45,-0.99 -1.01,-0.99c-0.55,0 -1,0.44 -1,0.99l0,4.75l-2.03,0l0,-4.75c0,-0.54 -0.44,-0.99 -1,-0.99c-0.55,0 -1.01,0.44 -1.01,0.99l0,4.75l-2.04,0l0,-4.75c0,-0.54 -0.44,-0.99 -1,-0.99c-0.55,0 -1.01,0.44 -1.01,0.99l0,4.75l-2.04,0l0,-4.75c0,-0.54 -0.44,-0.99 -1,-0.99c-0.55,0 -1.01,0.44 -1.01,0.99l0,4.75l-2.02,0l0,-4.75c0,-0.54 -0.44,-0.99 -1.01,-0.99c-0.54,0 -1,0.44 -1,0.99l0,4.75l-2.04,0l0,-4.75c0,-0.54 -0.44,-0.99 -1.01,-0.99c-0.54,0 -1,0.44 -1,0.99l0,4.75l-0.62,0c-0.55,0 -1.01,0.44 -1.01,1l0,0.61l-4.38,0c-0.55,0 -1.01,0.44 -1.01,0.99c0,0.54 0.44,1 1.01,1l4.38,0l0,2.01l-4.38,0c-0.55,0 -1.01,0.44 -1.01,1c0,0.54 0.44,0.99 1.01,0.99l4.38,0l0,2.02l-4.38,0c-0.55,0 -1.01,0.44 -1.01,0.99c0,0.54 0.44,1 1.01,1l4.38,0l0,2l-4.38,0c-0.55,0 -1.01,0.44 -1.01,0.99c0,0.54 0.44,1 1.01,1l4.38,0l0,2.01l-4.38,0c-0.55,0 -1.01,0.44 -1.01,1c0,0.54 0.44,0.99 1.01,0.99l4.38,0l0,2.02l-4.38,0c-0.55,0 -1.01,0.44 -1.01,0.99c0,0.54 0.44,0.99 1.01,0.99l4.38,0l0,0.6c0,0.54 0.45,1 1.01,1l0.62,0l0,4.34c0,0.54 0.44,0.99 1,0.99c0.57,0 1.01,-0.44 1.01,-0.99l0,-4.34l2.04,0l0,4.34c0,0.54 0.44,0.99 1,0.99c0.55,0 1.01,-0.44 1.01,-0.99l0,-4.34l2.02,0l0,4.34c0,0.54 0.45,0.99 1.01,0.99c0.56,0 1.02,-0.44 1,-0.99l0,-4.34l2.04,0l0,4.34c0,0.54 0.45,0.99 1.01,0.99s1,-0.44 1,-0.99l0,-4.34l2.04,0l0,4.34c0,0.54 0.45,0.99 1.01,0.99c0.54,0 1,-0.44 1,-0.99l0,-4.34l2.03,0l0,4.34c0,0.54 0.44,0.99 1,0.99s1.02,-0.44 1.01,-0.99l0,-4.34l0.62,0c0.56,0 1,-0.44 1,-1l0,-0.6l4.8,0c0.57,0 1.02,-0.45 1.01,-0.99c0,-0.54 -0.44,-0.99 -1.01,-0.99l-4.8,0l0,-2.02l4.8,0c0.57,0 1.02,-0.45 1.01,-0.99c0,-0.54 -0.44,-1 -1.01,-1l-4.8,0l0,-2.01l4.8,0c0.57,0 1.02,-0.44 1.01,-1c0,-0.54 -0.44,-0.99 -1.01,-0.99l-4.8,0l0,-2l4.8,0c0.57,0 1.02,-0.46 1.01,-1c0,-0.54 -0.44,-0.99 -1.01,-0.99l-4.8,0l0,-2.02l4.8,0c0.57,0 1.02,-0.45 1.01,-0.99c0,-0.54 -0.44,-1 -1.01,-1l-4.8,0l0,-2.01l4.8,0zm-28.25,19.6l0,-21.21l21.44,0l0,21.21l-21.44,0zm53.05,3.82c3.43,0 6.22,-2.76 6.21,-6.13c0,-3.38 -2.78,-6.14 -6.21,-6.14c-3.41,0 -6.2,2.75 -6.2,6.14c0,3.37 2.77,6.13 6.2,6.13zm0,-10.28c2.32,0 4.2,1.85 4.19,4.13c0,2.28 -1.88,4.14 -4.19,4.14c-2.3,0 -4.18,-1.86 -4.18,-4.14s1.88,-4.13 4.18,-4.13zm-3.4,-19.24l0,2l2.18,0l0,-2l-2.18,0zm4.63,0l0,2l2.17,0l0,-2l-2.17,0zm-1.23,34.96c5.87,0 10.64,-4.72 10.63,-10.52l0,-18.58c0,-0.54 -0.44,-0.99 -1.01,-0.99l-1.49,0l0,-8.73c0,-0.54 -0.44,-0.99 -1,-0.99l-14.25,0c-0.55,0 -1.01,0.44 -1.01,0.99l0,8.73l-1.5,0c-0.55,0 -1.01,0.44 -1.01,0.99l0,18.58c0,5.8 4.78,10.52 10.64,10.52zm-8.61,-28.1l1.49,0l14.25,0l1.49,0l0,17.56c0,4.69 -3.86,8.52 -8.62,8.52c-4.74,0 -8.61,-3.81 -8.61,-8.52l0,-17.56zm2.49,-2.01l0,-7.71l12.24,0l0,7.71l-12.24,0zm-40.35,46.26l0,3.86l2.02,0l0,-3.86l-2.02,0zm3.48,0l0,3.86l2.03,0l0,-3.86l-2.03,0zm3.51,0l0,3.86l2.02,0l0,-3.86l-2.02,0zm3.48,0l0,3.86l2.03,0l0,-3.86l-2.03,0zm6.06,28.21c0.55,0 1.01,-0.44 1.01,-1l0,-11.43c0,-0.54 -0.45,-0.99 -1.01,-0.99l-0.16,0l0,-4.28l0.16,0c0.55,0 1.01,-0.44 1.01,-1l0,-12.32c0,-0.54 -0.45,-0.99 -1.01,-0.99l-17.81,0c-0.26,0 -0.51,0.1 -0.71,0.29l-6.56,6.49c-0.19,0.18 -0.29,0.44 -0.29,0.7l0,4.26c0,0.54 0.44,0.99 1,0.99l0.46,0l0,0.29l-0.46,0c-0.54,0 -1,0.44 -1,1l0,16.99c0,0.54 0.44,1 1,1l24.37,0zm-23.36,-2.01l0,-14.99l0.46,0c0.54,0 1,-0.44 1,-0.99l0,-2.3c0,-0.54 -0.44,-0.99 -1,-0.99l-0.46,0l0,-2.85l5.97,-5.89l16.37,0l0,10.32l-0.16,0c-0.55,0 -1.01,0.43 -1.01,0.99l0,6.28c0,0.55 0.45,1 1.01,1l0.16,0l0,9.42l-22.34,0zm44.91,-21.84l0,2l1.88,0l0,1.11l1.7,0l-0.01,-1.11l2.09,0l0,1.11l1.7,0l0,-1.11l2.08,0l0,1.11l1.7,0l0,-1.11l2.09,0l0,1.11l1.69,0l0,-1.11l1.88,0l0,-2l-16.8,0zm19.36,7.24c0.56,0 1,-0.45 0.99,-0.99l0,-8.49c0,-0.54 -0.44,-0.99 -1.01,-0.99l-21.91,0c-0.55,0 -1.01,0.43 -1.01,0.99l0,8.49c0,0.54 0.45,0.99 1.01,0.99l21.93,0zm-20.91,-2l0,-6.49l19.9,0l0,6.49l-19.9,0zm1.55,6.44l0,2l1.88,0l0,1.11l1.7,0l-0.01,-1.11l2.09,0l0,1.11l1.7,0l0,-1.11l2.08,0l0,1.11l1.7,0l0,-1.11l2.09,0l0,1.11l1.69,0l0,-1.11l1.88,0l0,-2l-16.8,0zm19.36,7.25c0.56,0 1,-0.45 0.99,-1l0,-8.49c0,-0.54 -0.44,-0.99 -1.01,-0.99l-21.91,0c-0.55,0 -1.01,0.44 -1.01,0.99l0,8.49c0,0.55 0.45,1 1.01,1l21.93,0zm-20.91,-2l0,-6.49l19.9,0l0,6.49l-19.9,0zm25.33,6.11c0.56,0 1.02,-0.45 1,-1.01l0,-28.41c0,-0.54 -0.44,-0.99 -1,-0.99l-30.77,0c-0.55,0 -1.01,0.44 -1.01,0.99l0,28.43c0,0.54 0.45,0.99 1.01,0.99l30.77,0zm-29.75,-2l0,-26.41l28.74,0l0,26.41l-28.74,0zm58.58,-15.1c0.38,0.4 1.03,0.4 1.43,0l1.54,-1.52c0.4,-0.39 0.4,-1.02 0,-1.41c-0.4,-0.4 -1.03,-0.4 -1.43,0l-1.54,1.52c-0.4,0.39 -0.4,1.02 0,1.41zm-14.19,14.03c3.71,3.67 9.77,3.67 13.48,0l8.02,-7.93c3.49,-3.43 3.71,-8.88 0.68,-12.58l0.76,-0.75c2.78,-2.75 3.07,-7.02 0.91,-10.08c-0.36,-0.53 -1.12,-0.6 -1.56,-0.17c-0.36,0.36 -0.39,0.9 -0.11,1.31c1.62,2.29 1.39,5.48 -0.68,7.52l-0.75,0.75c-3.73,-3 -9.24,-2.77 -12.72,0.67l-8.03,7.94c-3.72,3.66 -3.72,9.64 0,13.32zm20.07,-19.84c2.93,2.89 2.93,7.6 0.02,10.49l-8.03,7.94c-2.92,2.89 -7.7,2.89 -10.62,0c-2.93,-2.9 -2.93,-7.62 0,-10.51l8.01,-7.92c2.92,-2.9 7.7,-2.9 10.62,0zm30.71,-0.6l-0.22,0.89c0.27,0.15 0.8,0.28 1.33,0.28c1.28,0 1.89,-0.66 1.89,-1.44c0,-0.64 -0.38,-1.06 -1.21,-1.37c-0.61,-0.23 -0.87,-0.36 -0.87,-0.66c0,-0.25 0.22,-0.45 0.68,-0.45c0.45,0 0.78,0.13 0.97,0.22l0.24,-0.85c-0.28,-0.12 -0.67,-0.23 -1.2,-0.23c-1.11,0 -1.77,0.6 -1.77,1.39c0,0.67 0.5,1.09 1.28,1.36c0.57,0.2 0.79,0.36 0.79,0.65c0,0.3 -0.25,0.5 -0.74,0.5c-0.45,0 -0.89,-0.15 -1.17,-0.29zm3.74,0l-0.22,0.89c0.26,0.15 0.8,0.28 1.33,0.28c1.28,0 1.89,-0.66 1.89,-1.44c0,-0.64 -0.38,-1.06 -1.21,-1.37c-0.61,-0.23 -0.87,-0.36 -0.87,-0.66c0,-0.25 0.22,-0.45 0.68,-0.45c0.45,0 0.78,0.13 0.97,0.22l0.24,-0.85c-0.28,-0.12 -0.67,-0.23 -1.2,-0.23c-1.11,0 -1.77,0.6 -1.77,1.39c0,0.67 0.5,1.09 1.28,1.36c0.56,0.2 0.79,0.36 0.79,0.65c0,0.3 -0.26,0.5 -0.74,0.5c-0.45,0 -0.89,-0.15 -1.17,-0.29zm3.72,-3.48l-0.01,0l0,4.53c0.27,0.04 0.65,0.07 1.2,0.07c0.91,0 1.67,-0.19 2.15,-0.6c0.46,-0.38 0.79,-0.99 0.79,-1.87c0,-0.82 -0.3,-1.39 -0.79,-1.74c-0.44,-0.33 -1.02,-0.49 -1.9,-0.49c-0.55,0 -1.05,0.04 -1.44,0.1zm1.05,3.77l0.02,0l0,-3.03c0.09,-0.02 0.23,-0.04 0.47,-0.04c0.9,0 1.46,0.5 1.46,1.46c0,1.11 -0.62,1.62 -1.58,1.62c-0.13,0 -0.28,0 -0.37,-0.01zm-0.66,22.86l0,-7.19c0,-6.9 -5.68,-12.51 -12.65,-12.51l-3.3,0l0,-10l22.97,0l0,29.7l-7.02,0zm-15.95,-17.72l3.3,0c5.85,0 10.62,4.71 10.62,10.51l0,7.21l-13.92,0l0,-17.72zm23.99,19.72c0.54,0 1,-0.44 1,-0.99l0,-31.7c0,-0.54 -0.44,-1 -1,-1l-24.99,0c-0.55,0 -1.01,0.44 -1.01,1l0,11.98l0,19.72c0,0.54 0.45,0.99 1.01,0.99l15.93,0l9.06,0zm50.5,-74.05c0.57,0 1.02,-0.46 1.01,-1c0,-0.54 -0.44,-0.99 -1.01,-0.99l-4.8,0l0,-0.61c0,-0.55 -0.44,-1 -1,-1l-0.62,0l0,-4.75c0,-0.54 -0.45,-0.99 -1.01,-0.99c-0.55,0 -1,0.44 -1,0.99l0,4.75l-2.03,0l0,-4.75c0,-0.54 -0.44,-0.99 -1,-0.99c-0.55,0 -1.01,0.44 -1.01,0.99l0,4.75l-2.04,0l0,-4.75c0,-0.54 -0.44,-0.99 -1,-0.99c-0.55,0 -1.01,0.44 -1.01,0.99l0,4.75l-2.04,0l0,-4.75c0,-0.54 -0.44,-0.99 -1,-0.99c-0.55,0 -1.01,0.44 -1.01,0.99l0,4.75l-2.02,0l0,-4.75c0,-0.54 -0.44,-0.99 -1.01,-0.99c-0.54,0 -1,0.44 -1,0.99l0,4.75l-2.04,0l0,-4.75c0,-0.54 -0.44,-0.99 -1.01,-0.99c-0.54,0 -1,0.44 -1,0.99l0,4.75l-0.62,0c-0.55,0 -1.01,0.44 -1.01,1l0,0.61l-4.38,0c-0.55,0 -1.01,0.44 -1.01,0.99c0,0.54 0.44,1 1.01,1l4.38,0l0,2.01l-4.38,0c-0.55,0 -1.01,0.44 -1.01,1c0,0.54 0.44,0.99 1.01,0.99l4.38,0l0,2.02l-4.38,0c-0.55,0 -1.01,0.44 -1.01,0.99c0,0.54 0.44,1 1.01,1l4.38,0l0,2l-4.38,0c-0.55,0 -1.01,0.44 -1.01,0.99c0,0.54 0.44,1 1.01,1l4.38,0l0,2.01l-4.38,0c-0.55,0 -1.01,0.44 -1.01,1c0,0.54 0.44,0.99 1.01,0.99l4.38,0l0,2.02l-4.38,0c-0.55,0 -1.01,0.44 -1.01,0.99c0,0.54 0.44,0.99 1.01,0.99l4.38,0l0,0.6c0,0.54 0.45,1 1.01,1l0.62,0l0,4.34c0,0.54 0.44,0.99 1,0.99c0.57,0 1.01,-0.44 1.01,-0.99l0,-4.34l2.04,0l0,4.34c0,0.54 0.44,0.99 1,0.99c0.55,0 1.01,-0.44 1.01,-0.99l0,-4.34l2.02,0l0,4.34c0,0.54 0.45,0.99 1.01,0.99s1.02,-0.44 1,-0.99l0,-4.34l2.04,0l0,4.34c0,0.54 0.45,0.99 1.01,0.99s1,-0.44 1,-0.99l0,-4.34l2.04,0l0,4.34c0,0.54 0.45,0.99 1.01,0.99c0.54,0 1,-0.44 1,-0.99l0,-4.34l2.03,0l0,4.34c0,0.54 0.44,0.99 1,0.99s1.02,-0.44 1.01,-0.99l0,-4.34l0.62,0c0.56,0 1,-0.44 1,-1l0,-0.6l4.8,0c0.57,0 1.02,-0.45 1.01,-0.99c0,-0.54 -0.44,-0.99 -1.01,-0.99l-4.8,0l0,-2.02l4.8,0c0.57,0 1.02,-0.45 1.01,-0.99c0,-0.54 -0.44,-1 -1.01,-1l-4.8,0l0,-2.01l4.8,0c0.57,0 1.02,-0.44 1.01,-1c0,-0.54 -0.44,-0.99 -1.01,-0.99l-4.8,0l0,-2l4.8,0c0.57,0 1.02,-0.46 1.01,-1c0,-0.54 -0.44,-0.99 -1.01,-0.99l-4.8,0l0,-2.02l4.8,0c0.57,0 1.02,-0.45 1.01,-0.99c0,-0.54 -0.44,-1 -1.01,-1l-4.8,0l0,-2.01l4.8,0zm-28.25,19.6l0,-21.21l21.44,0l0,21.21l-21.44,0zm53.05,9.26c5.87,0 10.64,-4.72 10.63,-10.52l0,-18.58c0,-0.54 -0.44,-0.99 -1.01,-0.99l-1.49,0l0,-8.73c0,-0.54 -0.44,-0.99 -1,-0.99l-14.25,0c-0.55,0 -1.01,0.44 -1.01,0.99l0,8.73l-1.5,0c-0.55,0 -1.01,0.44 -1.01,0.99l0,18.58c0,5.8 4.78,10.52 10.64,10.52zm-8.61,-28.1l1.49,0l14.25,0l1.49,0l0,17.56c0,4.69 -3.86,8.52 -8.62,8.52c-4.74,0 -8.61,-3.81 -8.61,-8.52l0,-17.56zm2.49,-2.01l0,-7.71l12.24,0l0,7.71l-12.24,0zm6.12,24.67c3.43,0 6.22,-2.76 6.21,-6.13c0,-3.38 -2.78,-6.14 -6.21,-6.14c-3.41,0 -6.2,2.75 -6.2,6.14c0,3.37 2.77,6.13 6.2,6.13zm0,-10.28c2.32,0 4.2,1.85 4.19,4.13c0,2.28 -1.88,4.14 -4.19,4.14c-2.3,0 -4.18,-1.86 -4.18,-4.14s1.88,-4.13 4.18,-4.13zm-3.4,-19.24l0,2l2.18,0l0,-2l-2.18,0zm4.63,0l0,2l2.17,0l0,-2l-2.17,0zm-31.17,79.32c0.55,0 1.01,-0.44 1.01,-1l0,-11.43c0,-0.54 -0.45,-0.99 -1.01,-0.99l-0.16,0l0,-4.28l0.16,0c0.55,0 1.01,-0.44 1.01,-1l0,-12.32c0,-0.54 -0.45,-0.99 -1.01,-0.99l-17.81,0c-0.26,0 -0.51,0.1 -0.71,0.29l-6.56,6.49c-0.19,0.18 -0.29,0.44 -0.29,0.7l0,4.26c0,0.54 0.44,0.99 1,0.99l0.46,0l0,0.29l-0.46,0c-0.54,0 -1,0.44 -1,1l0,16.99c0,0.54 0.44,1 1,1l24.37,0zm-23.36,-2.01l0,-14.99l0.46,0c0.54,0 1,-0.44 1,-0.99l0,-2.3c0,-0.54 -0.44,-0.99 -1,-0.99l-0.46,0l0,-2.85l5.97,-5.89l16.37,0l0,10.32l-0.16,0c-0.55,0 -1.01,0.43 -1.01,0.99l0,6.28c0,0.55 0.45,1 1.01,1l0.16,0l0,9.42l-22.34,0zm6.83,-26.2l0,3.86l2.02,0l0,-3.86l-2.02,0zm3.48,0l0,3.86l2.03,0l0,-3.86l-2.03,0zm3.51,0l0,3.86l2.02,0l0,-3.86l-2.02,0zm3.48,0l0,3.86l2.03,0l0,-3.86l-2.03,0zm50.53,-3.01l-29.91,0c-0.55,0 -1.01,0.44 -1.01,0.99l0,28.43c0,0.54 0.45,0.99 1.01,0.99l29.91,0l0,-30.41zm-28.89,28.41l0,-26.41l28.74,0l0,26.41l-28.74,0zm25.33,-13.8c0.56,0 1,-0.45 0.99,-0.99l0,-8.49c0,-0.54 -0.44,-0.99 -1.01,-0.99l-21.91,0c-0.55,0 -1.01,0.43 -1.01,0.99l0,8.49c0,0.54 0.45,0.99 1.01,0.99l21.93,0zm-20.91,-2l0,-6.49l19.9,0l0,6.49l-19.9,0zm1.55,-5.24l0,2l1.88,0l0,1.11l1.7,0l0,-1.11l2.08,0l0,1.11l1.7,0l0,-1.11l2.08,0l0,1.11l1.7,0l0,-1.11l2.09,0l0,1.11l1.69,0l0,-1.11l1.88,0l0,-2l-16.8,0zm19.36,18.93c0.56,0 1,-0.45 0.99,-1l0,-8.49c0,-0.54 -0.44,-0.99 -1.01,-0.99l-21.91,0c-0.55,0 -1.01,0.44 -1.01,0.99l0,8.49c0,0.55 0.45,1 1.01,1l21.93,0zm-20.91,-2l0,-6.49l19.9,0l0,6.49l-19.9,0zm1.55,-5.25l0,2l1.88,0l0,1.11l1.7,0l0,-1.11l2.08,0l0,1.11l1.7,0l0,-1.11l2.08,0l0,1.11l1.7,0l0,-1.11l2.09,0l0,1.11l1.69,0l0,-1.11l1.88,0l0,-2l-16.8,0z" fill="#B7C7C8" clip-rule="evenodd" fill-rule="evenodd"/>
  <path id="svg_6" d="m52.67,206.81c9.56,0 17.33,-7.69 17.33,-17.14c0,-9.46 -7.77,-17.15 -17.33,-17.15c-9.57,0 -17.34,7.69 -17.34,17.15c0,9.45 7.77,17.14 17.34,17.14zm0,-32.29c8.43,0 15.31,6.79 15.31,15.15c0,8.34 -6.88,15.14 -15.31,15.14c-8.44,0 -15.32,-6.8 -15.32,-15.14c0,-8.35 6.88,-15.15 15.32,-15.15zm0,22.15c3.9,0 7.07,-3.15 7.07,-7c0,-3.86 -3.17,-7.01 -7.07,-7.01c-3.91,0 -7.08,3.15 -7.08,7.01c0,3.85 3.17,7 7.08,7zm0,-12c2.79,0 5.05,2.23 5.05,5c0,2.76 -2.26,4.99 -5.05,4.99c-2.8,0 -5.06,-2.23 -5.06,-4.99c0,-2.77 2.26,-5 5.06,-5zm0,9.06c2.27,0 4.12,-1.83 4.12,-4.08s-1.85,-4.08 -4.12,-4.08c-2.28,0 -4.13,1.83 -4.13,4.08s1.85,4.08 4.13,4.08zm0,-6.14c1.15,0 2.09,0.94 2.09,2.08s-0.94,2.07 -2.09,2.07c-1.16,0 -2.1,-0.93 -2.1,-2.07s0.94,-2.08 2.1,-2.08zm-52.67,-10.36l5.46,0l0,3.1l-1.8,0c-0.55,0 -1,0.43 -1,0.99l0,3.27l-2.66,0l0,14.75l23.06,0c0.57,0 1.01,-0.45 0.98,-0.99l0,-12.76c0,-0.54 -0.44,-1 -1.01,-1l-3.57,0l0,-3.27c0,-0.54 -0.45,-0.99 -1.01,-0.99l-1.58,0l0,-3.1l9.58,0l0,25.44l-26.45,0l0,2l27.47,0c0.56,0 1,-0.45 1,-1l0,-27.45c0,-0.54 -0.44,-0.99 -1,-0.99l-27.47,-0.01l0,2.01zm7.5,0l7.38,0l0,4.09c0,0.54 0.44,0.99 1,0.99l1.58,0l0,3.28c0,0.54 0.45,0.99 1.01,0.99l3.57,0l0,10.76l-21.96,0l0,-10.76l3.61,0c0.55,0 1,-0.44 1,-0.99l0,-3.28l1.81,0c0.54,0 1,-0.43 1,-0.99l0,-4.09zm-7.5,4.5l0.76,0l0,-2.53l-0.76,0l0,2.53zm20.98,-2.53l0,2.53l3.37,0l0,-2.53l-3.37,0zm-10.42,68.68c-2.9,2.87 -7.63,2.89 -10.56,0.06l0,2.56c3.7,2.4 8.74,2 11.98,-1.21l8.02,-7.93c3.49,-3.43 3.71,-8.88 0.68,-12.58l0.76,-0.75c2.78,-2.75 3.07,-7.02 0.91,-10.08c-0.36,-0.53 -1.12,-0.6 -1.56,-0.17c-0.36,0.36 -0.39,0.9 -0.11,1.31c1.62,2.29 1.39,5.48 -0.68,7.52l-0.75,0.75c-3.73,-3 -9.24,-2.77 -12.72,0.67l-6.53,6.45l0,2.82l7.95,-7.85c2.92,-2.9 7.7,-2.9 10.62,0c2.93,2.89 2.93,7.6 0.02,10.49l-8.03,7.94zm2.13,-12.62c0.38,0.4 1.03,0.4 1.43,0l1.54,-1.52c0.4,-0.39 0.4,-1.02 0,-1.41c-0.4,-0.4 -1.03,-0.4 -1.43,0l-1.54,1.52c-0.4,0.39 -0.4,1.02 0,1.41zm44.44,16.74l0,-7.19c0,-6.9 -5.68,-12.51 -12.65,-12.51l-3.3,0l0,-10l22.97,0l0,29.7l-7.02,0zm-15.95,-17.72l3.3,0c5.85,0 10.62,4.71 10.62,10.51l0,7.21l-13.92,0l0,-17.72zm23.99,19.72c0.54,0 1,-0.44 1,-0.99l0,-31.7c0,-0.54 -0.44,-1 -1,-1l-24.99,0c-0.55,0 -1.01,0.44 -1.01,1l0,11.98l0,19.72c0,0.54 0.45,0.99 1.01,0.99l15.93,0l9.06,0zm-15.89,-25.15l-0.22,0.89c0.27,0.15 0.8,0.28 1.33,0.28c1.28,0 1.89,-0.66 1.89,-1.44c0,-0.64 -0.38,-1.06 -1.21,-1.37c-0.61,-0.23 -0.87,-0.36 -0.87,-0.66c0,-0.25 0.22,-0.45 0.68,-0.45c0.45,0 0.78,0.13 0.97,0.22l0.24,-0.85c-0.28,-0.12 -0.67,-0.23 -1.2,-0.23c-1.11,0 -1.77,0.6 -1.77,1.39c0,0.67 0.5,1.09 1.28,1.36c0.57,0.2 0.79,0.36 0.79,0.65c0,0.3 -0.25,0.5 -0.74,0.5c-0.45,0 -0.89,-0.15 -1.17,-0.29zm3.74,0l-0.22,0.89c0.26,0.15 0.8,0.28 1.33,0.28c1.28,0 1.89,-0.66 1.89,-1.44c0,-0.64 -0.38,-1.06 -1.21,-1.37c-0.61,-0.23 -0.87,-0.36 -0.87,-0.66c0,-0.25 0.22,-0.45 0.68,-0.45c0.45,0 0.78,0.13 0.97,0.22l0.24,-0.85c-0.28,-0.12 -0.67,-0.23 -1.2,-0.23c-1.11,0 -1.77,0.6 -1.77,1.39c0,0.67 0.5,1.09 1.28,1.36c0.56,0.2 0.79,0.36 0.79,0.65c0,0.3 -0.26,0.5 -0.74,0.5c-0.45,0 -0.89,-0.15 -1.17,-0.29zm3.71,-3.48l0,4.53c0.27,0.04 0.65,0.07 1.2,0.07c0.91,0 1.67,-0.19 2.15,-0.6c0.46,-0.38 0.79,-0.99 0.79,-1.87c0,-0.82 -0.3,-1.39 -0.79,-1.74c-0.44,-0.33 -1.02,-0.49 -1.9,-0.49c-0.55,0 -1.07,0.04 -1.45,0.1zm1.08,3.77l0,-3.03c0.09,-0.02 0.23,-0.04 0.47,-0.04c0.9,0 1.46,0.5 1.46,1.46c0,1.11 -0.62,1.62 -1.58,1.62c-0.13,0 -0.26,0 -0.35,-0.01zm166.86,-22.33c-9.57,0 -17.34,-7.69 -17.34,-17.14c0,-9.46 7.77,-17.15 17.34,-17.15c9.56,0 17.33,7.69 17.33,17.15c0,9.45 -7.77,17.14 -17.33,17.14zm0,-32.29c-8.44,0 -15.32,6.8 -15.32,15.15c0,8.34 6.88,15.14 15.32,15.14c8.43,0 15.31,-6.8 15.31,-15.14c0,-8.36 -6.88,-15.15 -15.31,-15.15zm0,19.21c-2.28,0 -4.13,-1.83 -4.13,-4.08s1.85,-4.08 4.13,-4.08c2.27,0 4.12,1.83 4.12,4.08s-1.85,4.08 -4.12,4.08zm0,-6.14c-1.16,0 -2.1,0.94 -2.1,2.08s0.94,2.07 2.1,2.07c1.15,0 2.09,-0.93 2.09,-2.07s-0.94,-2.08 -2.09,-2.08zm0,9.08c-3.91,0 -7.08,-3.15 -7.08,-7c0,-3.86 3.17,-7.01 7.08,-7.01c3.9,0 7.07,3.15 7.07,7.01c0,3.85 -3.17,7 -7.07,7zm0,-12c-2.8,0 -5.06,2.23 -5.06,5c0,2.76 2.26,4.99 5.06,4.99c2.79,0 5.05,-2.23 5.05,-4.99c0,-2.77 -2.26,-5 -5.05,-5zm-55.28,-5.47l0,2.53l3.37,0l0,-2.53l-3.37,0zm23.59,0l0,2.53l3.37,0l0,-2.53l-3.37,0zm6.49,25.47c0.56,0 1,-0.45 1,-1l0,-27.45c0,-0.54 -0.44,-0.99 -1,-0.99l-32.8,0c-0.54,0 -1,0.43 -1,0.99l0,27.46c0,0.54 0.44,0.99 1,0.99l32.8,0zm-31.79,-2l0,-25.44l9.78,0l0,3.1l-1.8,0c-0.55,0 -1,0.43 -1,0.99l0,3.27l-3.58,0c-0.55,0 -1.01,0.44 -1.01,1l0,12.76c0,0.54 0.45,0.99 1.01,0.99l23.98,0c0.57,0 1.01,-0.45 0.98,-0.99l0,-12.76c0,-0.54 -0.44,-1 -1.01,-1l-3.57,0l0,-3.27c0,-0.54 -0.45,-0.99 -1.01,-0.99l-1.58,0l0,-3.1l9.58,0l0,25.44l-30.77,0zm11.82,-25.44l7.38,0l0,4.09c0,0.54 0.44,0.99 1,0.99l1.58,0l0,3.28c0,0.54 0.45,0.99 1.01,0.99l3.57,0l0,10.76l-21.96,0l0,-10.76l3.61,0c0.55,0 1,-0.44 1,-0.99l0,-3.28l1.81,0c0.54,0 1,-0.43 1,-0.99l0,-4.09zm-63.83,2.72c0.57,0 1.02,-0.46 1.01,-1c0,-0.54 -0.44,-0.99 -1.01,-0.99l-4.8,0l0,-0.61c0,-0.55 -0.44,-1 -1,-1l-0.62,0l0,-4.75c0,-0.54 -0.45,-0.99 -1.01,-0.99c-0.55,0 -1,0.44 -1,0.99l0,4.75l-2.03,0l0,-4.75c0,-0.54 -0.44,-0.99 -1,-0.99c-0.55,0 -1.01,0.44 -1.01,0.99l0,4.75l-2.04,0l0,-4.75c0,-0.54 -0.44,-0.99 -1,-0.99c-0.55,0 -1.01,0.44 -1.01,0.99l0,4.75l-2.04,0l0,-4.75c0,-0.54 -0.44,-0.99 -1,-0.99c-0.55,0 -1.01,0.44 -1.01,0.99l0,4.75l-2.02,0l0,-4.75c0,-0.54 -0.44,-0.99 -1.01,-0.99c-0.54,0 -1,0.44 -1,0.99l0,4.75l-2.04,0l0,-4.75c0,-0.54 -0.44,-0.99 -1.01,-0.99c-0.54,0 -1,0.44 -1,0.99l0,4.75l-0.62,0c-0.55,0 -1.01,0.44 -1.01,1l0,0.61l-4.38,0c-0.55,0 -1.01,0.44 -1.01,0.99c0,0.54 0.44,1 1.01,1l4.38,0l0,2.01l-4.38,0c-0.55,0 -1.01,0.44 -1.01,1c0,0.54 0.44,0.99 1.01,0.99l4.38,0l0,2.02l-4.38,0c-0.55,0 -1.01,0.44 -1.01,0.99c0,0.54 0.44,1 1.01,1l4.38,0l0,2l-4.38,0c-0.55,0 -1.01,0.44 -1.01,0.99c0,0.54 0.44,1 1.01,1l4.38,0l0,2.01l-4.38,0c-0.55,0 -1.01,0.44 -1.01,1c0,0.54 0.44,0.99 1.01,0.99l4.38,0l0,2.02l-4.38,0c-0.55,0 -1.01,0.44 -1.01,0.99c0,0.54 0.44,0.99 1.01,0.99l4.38,0l0,0.6c0,0.54 0.45,1 1.01,1l0.62,0l0,4.34c0,0.54 0.44,0.99 1,0.99c0.57,0 1.01,-0.44 1.01,-0.99l0,-4.34l2.04,0l0,4.34c0,0.54 0.44,0.99 1,0.99c0.55,0 1.01,-0.44 1.01,-0.99l0,-4.34l2.02,0l0,4.34c0,0.54 0.45,0.99 1.01,0.99c0.56,0 1.02,-0.44 1,-0.99l0,-4.34l2.04,0l0,4.34c0,0.54 0.45,0.99 1.01,0.99s1,-0.44 1,-0.99l0,-4.34l2.04,0l0,4.34c0,0.54 0.45,0.99 1.01,0.99c0.54,0 1,-0.44 1,-0.99l0,-4.34l2.03,0l0,4.34c0,0.54 0.44,0.99 1,0.99s1.02,-0.44 1.01,-0.99l0,-4.34l0.62,0c0.56,0 1,-0.44 1,-1l0,-0.6l4.8,0c0.57,0 1.02,-0.45 1.01,-0.99c0,-0.54 -0.44,-0.99 -1.01,-0.99l-4.8,0l0,-2.02l4.8,0c0.57,0 1.02,-0.45 1.01,-0.99c0,-0.54 -0.44,-1 -1.01,-1l-4.8,0l0,-2.01l4.8,0c0.57,0 1.02,-0.44 1.01,-1c0,-0.54 -0.44,-0.99 -1.01,-0.99l-4.8,0l0,-2l4.8,0c0.57,0 1.02,-0.46 1.01,-1c0,-0.54 -0.44,-0.99 -1.01,-0.99l-4.8,0l0,-2.02l4.8,0c0.57,0 1.02,-0.45 1.01,-0.99c0,-0.54 -0.44,-1 -1.01,-1l-4.8,0l0,-2.01l4.8,0zm-28.25,19.6l0,-21.21l21.44,0l0,21.21l-21.44,0zm53.05,3.82c3.43,0 6.22,-2.76 6.21,-6.13c0,-3.38 -2.78,-6.14 -6.21,-6.14c-3.41,0 -6.2,2.75 -6.2,6.14c0,3.37 2.77,6.13 6.2,6.13zm0,-10.28c2.32,0 4.2,1.85 4.19,4.13c0,2.28 -1.88,4.14 -4.19,4.14c-2.3,0 -4.18,-1.86 -4.18,-4.14s1.88,-4.13 4.18,-4.13zm-3.4,-19.24l0,2l2.18,0l0,-2l-2.18,0zm4.63,0l0,2l2.17,0l0,-2l-2.17,0zm-1.23,34.96c5.87,0 10.64,-4.72 10.63,-10.52l0,-18.58c0,-0.54 -0.44,-0.99 -1.01,-0.99l-1.49,0l0,-8.73c0,-0.54 -0.44,-0.99 -1,-0.99l-14.25,0c-0.55,0 -1.01,0.44 -1.01,0.99l0,8.73l-1.5,0c-0.55,0 -1.01,0.44 -1.01,0.99l0,18.58c0,5.8 4.78,10.52 10.64,10.52zm-8.61,-28.1l1.49,0l14.25,0l1.49,0l0,17.56c0,4.69 -3.86,8.52 -8.62,8.52c-4.74,0 -8.61,-3.81 -8.61,-8.52l0,-17.56zm2.49,-2.01l0,-7.71l12.24,0l0,7.71l-12.24,0zm-40.35,46.26l0,3.86l2.02,0l0,-3.86l-2.02,0zm3.48,0l0,3.86l2.03,0l0,-3.86l-2.03,0zm3.51,0l0,3.86l2.02,0l0,-3.86l-2.02,0zm3.48,0l0,3.86l2.03,0l0,-3.86l-2.03,0zm6.06,28.21c0.55,0 1.01,-0.44 1.01,-1l0,-11.43c0,-0.54 -0.45,-0.99 -1.01,-0.99l-0.16,0l0,-4.28l0.16,0c0.55,0 1.01,-0.44 1.01,-1l0,-12.32c0,-0.54 -0.45,-0.99 -1.01,-0.99l-17.81,0c-0.26,0 -0.51,0.1 -0.71,0.29l-6.56,6.49c-0.19,0.18 -0.29,0.44 -0.29,0.7l0,4.26c0,0.54 0.44,0.99 1,0.99l0.46,0l0,0.29l-0.46,0c-0.54,0 -1,0.44 -1,1l0,16.99c0,0.54 0.44,1 1,1l24.37,0zm-23.36,-2.01l0,-14.99l0.46,0c0.54,0 1,-0.44 1,-0.99l0,-2.3c0,-0.54 -0.44,-0.99 -1,-0.99l-0.46,0l0,-2.85l5.97,-5.89l16.37,0l0,10.32l-0.16,0c-0.55,0 -1.01,0.43 -1.01,0.99l0,6.28c0,0.55 0.45,1 1.01,1l0.16,0l0,9.42l-22.34,0zm44.91,-21.84l0,2l1.88,0l0,1.11l1.7,0l-0.01,-1.11l2.09,0l0,1.11l1.7,0l0,-1.11l2.08,0l0,1.11l1.7,0l0,-1.11l2.09,0l0,1.11l1.69,0l0,-1.11l1.88,0l0,-2l-16.8,0zm19.36,7.24c0.56,0 1,-0.45 0.99,-0.99l0,-8.49c0,-0.54 -0.44,-0.99 -1.01,-0.99l-21.91,0c-0.55,0 -1.01,0.43 -1.01,0.99l0,8.49c0,0.54 0.45,0.99 1.01,0.99l21.93,0zm-20.91,-2l0,-6.49l19.9,0l0,6.49l-19.9,0zm1.55,6.44l0,2l1.88,0l0,1.11l1.7,0l-0.01,-1.11l2.09,0l0,1.11l1.7,0l0,-1.11l2.08,0l0,1.11l1.7,0l0,-1.11l2.09,0l0,1.11l1.69,0l0,-1.11l1.88,0l0,-2l-16.8,0zm19.36,7.25c0.56,0 1,-0.45 0.99,-1l0,-8.49c0,-0.54 -0.44,-0.99 -1.01,-0.99l-21.91,0c-0.55,0 -1.01,0.44 -1.01,0.99l0,8.49c0,0.55 0.45,1 1.01,1l21.93,0zm-20.91,-2l0,-6.49l19.9,0l0,6.49l-19.9,0zm25.33,6.11c0.56,0 1.02,-0.45 1,-1.01l0,-28.41c0,-0.54 -0.44,-0.99 -1,-0.99l-30.77,0c-0.55,0 -1.01,0.44 -1.01,0.99l0,28.43c0,0.54 0.45,0.99 1.01,0.99l30.77,0zm-29.75,-2l0,-26.41l28.74,0l0,26.41l-28.74,0zm58.58,-15.1c0.38,0.4 1.03,0.4 1.43,0l1.54,-1.52c0.4,-0.39 0.4,-1.02 0,-1.41c-0.4,-0.4 -1.03,-0.4 -1.43,0l-1.54,1.52c-0.4,0.39 -0.4,1.02 0,1.41zm-14.19,14.03c3.71,3.67 9.77,3.67 13.48,0l8.02,-7.93c3.49,-3.43 3.71,-8.88 0.68,-12.58l0.76,-0.75c2.78,-2.75 3.07,-7.02 0.91,-10.08c-0.36,-0.53 -1.12,-0.6 -1.56,-0.17c-0.36,0.36 -0.39,0.9 -0.11,1.31c1.62,2.29 1.39,5.48 -0.68,7.52l-0.75,0.75c-3.73,-3 -9.24,-2.77 -12.72,0.67l-8.03,7.94c-3.72,3.66 -3.72,9.64 0,13.32zm20.07,-19.84c2.93,2.89 2.93,7.6 0.02,10.49l-8.03,7.94c-2.92,2.89 -7.7,2.89 -10.62,0c-2.93,-2.9 -2.93,-7.62 0,-10.51l8.01,-7.92c2.92,-2.9 7.7,-2.9 10.62,0zm30.71,-0.6l-0.22,0.89c0.27,0.15 0.8,0.28 1.33,0.28c1.28,0 1.89,-0.66 1.89,-1.44c0,-0.64 -0.38,-1.06 -1.21,-1.37c-0.61,-0.23 -0.87,-0.36 -0.87,-0.66c0,-0.25 0.22,-0.45 0.68,-0.45c0.45,0 0.78,0.13 0.97,0.22l0.24,-0.85c-0.28,-0.12 -0.67,-0.23 -1.2,-0.23c-1.11,0 -1.77,0.6 -1.77,1.39c0,0.67 0.5,1.09 1.28,1.36c0.57,0.2 0.79,0.36 0.79,0.65c0,0.3 -0.25,0.5 -0.74,0.5c-0.45,0 -0.89,-0.15 -1.17,-0.29zm3.74,0l-0.22,0.89c0.26,0.15 0.8,0.28 1.33,0.28c1.28,0 1.89,-0.66 1.89,-1.44c0,-0.64 -0.38,-1.06 -1.21,-1.37c-0.61,-0.23 -0.87,-0.36 -0.87,-0.66c0,-0.25 0.22,-0.45 0.68,-0.45c0.45,0 0.78,0.13 0.97,0.22l0.24,-0.85c-0.28,-0.12 -0.67,-0.23 -1.2,-0.23c-1.11,0 -1.77,0.6 -1.77,1.39c0,0.67 0.5,1.09 1.28,1.36c0.56,0.2 0.79,0.36 0.79,0.65c0,0.3 -0.26,0.5 -0.74,0.5c-0.45,0 -0.89,-0.15 -1.17,-0.29zm3.72,-3.48l-0.01,0l0,4.53c0.27,0.04 0.65,0.07 1.2,0.07c0.91,0 1.67,-0.19 2.15,-0.6c0.46,-0.38 0.79,-0.99 0.79,-1.87c0,-0.82 -0.3,-1.39 -0.79,-1.74c-0.44,-0.33 -1.02,-0.49 -1.9,-0.49c-0.55,0 -1.05,0.04 -1.44,0.1zm1.05,3.77l0.02,0l0,-3.03c0.09,-0.02 0.23,-0.04 0.47,-0.04c0.9,0 1.46,0.5 1.46,1.46c0,1.11 -0.62,1.62 -1.58,1.62c-0.13,0 -0.28,0 -0.37,-0.01zm-0.66,22.86l0,-7.19c0,-6.9 -5.68,-12.51 -12.65,-12.51l-3.3,0l0,-10l22.97,0l0,29.7l-7.02,0zm-15.95,-17.72l3.3,0c5.85,0 10.62,4.71 10.62,10.51l0,7.21l-13.92,0l0,-17.72zm23.99,19.72c0.54,0 1,-0.44 1,-0.99l0,-31.7c0,-0.54 -0.44,-1 -1,-1l-24.99,0c-0.55,0 -1.01,0.44 -1.01,1l0,11.98l0,19.72c0,0.54 0.45,0.99 1.01,0.99l15.93,0l9.06,0zm134.3,-49.33c0.56,0 1,-0.45 1,-1l0,-27.45c0,-0.54 -0.44,-0.99 -1,-0.99l-32.79,0c-0.55,0 -1.01,0.43 -1.01,0.99l0,27.46c0,0.54 0.44,0.99 1.01,0.99l32.79,0zm-31.79,-2l0,-25.44l9.78,0l0,3.1l-1.8,0c-0.55,0 -1,0.43 -1,0.99l0,3.27l-3.58,0c-0.55,0 -1.01,0.44 -1.01,1l0,12.76c0,0.54 0.45,0.99 1.01,0.99l23.98,0c0.57,0 1.01,-0.45 0.98,-0.99l0,-12.76c0,-0.54 -0.44,-1 -1.01,-1l-3.57,0l0,-3.27c0,-0.54 -0.45,-0.99 -1.01,-0.99l-1.58,0l0,-3.1l9.58,0l0,25.44l-30.77,0zm11.82,-25.44l7.38,0l0,4.09c0,0.54 0.44,0.99 1,0.99l1.58,0l0,3.28c0,0.54 0.45,0.99 1.01,0.99l3.57,0l0,10.76l-21.96,0l0,-10.76l3.61,0c0.55,0 1,-0.44 1,-0.99l0,-3.28l1.81,0c0.54,0 1,-0.43 1,-0.99l0,-4.09zm-10.11,1.97l0,2.53l3.37,0l0,-2.53l-3.37,0zm23.59,0l0,2.53l3.37,0l0,-2.53l-3.37,0zm-77.31,0.75c0.57,0 1.02,-0.46 1.01,-1c0,-0.54 -0.44,-0.99 -1.01,-0.99l-4.8,0l0,-0.61c0,-0.55 -0.44,-1 -1,-1l-0.62,0l0,-4.75c0,-0.54 -0.45,-0.99 -1.01,-0.99c-0.55,0 -1,0.44 -1,0.99l0,4.75l-2.03,0l0,-4.75c0,-0.54 -0.44,-0.99 -1,-0.99c-0.55,0 -1.01,0.44 -1.01,0.99l0,4.75l-2.04,0l0,-4.75c0,-0.54 -0.44,-0.99 -1,-0.99c-0.55,0 -1.01,0.44 -1.01,0.99l0,4.75l-2.04,0l0,-4.75c0,-0.54 -0.44,-0.99 -1,-0.99c-0.55,0 -1.01,0.44 -1.01,0.99l0,4.75l-2.02,0l0,-4.75c0,-0.54 -0.44,-0.99 -1.01,-0.99c-0.54,0 -1,0.44 -1,0.99l0,4.75l-2.04,0l0,-4.75c0,-0.54 -0.44,-0.99 -1.01,-0.99c-0.54,0 -1,0.44 -1,0.99l0,4.75l-0.62,0c-0.55,0 -1.01,0.44 -1.01,1l0,0.61l-4.38,0c-0.55,0 -1.01,0.44 -1.01,0.99c0,0.54 0.44,1 1.01,1l4.38,0l0,2.01l-4.38,0c-0.55,0 -1.01,0.44 -1.01,1c0,0.54 0.44,0.99 1.01,0.99l4.38,0l0,2.02l-4.38,0c-0.55,0 -1.01,0.44 -1.01,0.99c0,0.54 0.44,1 1.01,1l4.38,0l0,2l-4.38,0c-0.55,0 -1.01,0.44 -1.01,0.99c0,0.54 0.44,1 1.01,1l4.38,0l0,2.01l-4.38,0c-0.55,0 -1.01,0.44 -1.01,1c0,0.54 0.44,0.99 1.01,0.99l4.38,0l0,2.02l-4.38,0c-0.55,0 -1.01,0.44 -1.01,0.99c0,0.54 0.44,0.99 1.01,0.99l4.38,0l0,0.6c0,0.54 0.45,1 1.01,1l0.62,0l0,4.34c0,0.54 0.44,0.99 1,0.99c0.57,0 1.01,-0.44 1.01,-0.99l0,-4.34l2.04,0l0,4.34c0,0.54 0.44,0.99 1,0.99c0.55,0 1.01,-0.44 1.01,-0.99l0,-4.34l2.02,0l0,4.34c0,0.54 0.45,0.99 1.01,0.99s1.02,-0.44 1,-0.99l0,-4.34l2.04,0l0,4.34c0,0.54 0.45,0.99 1.01,0.99s1,-0.44 1,-0.99l0,-4.34l2.04,0l0,4.34c0,0.54 0.45,0.99 1.01,0.99c0.54,0 1,-0.44 1,-0.99l0,-4.34l2.03,0l0,4.34c0,0.54 0.44,0.99 1,0.99s1.02,-0.44 1.01,-0.99l0,-4.34l0.62,0c0.56,0 1,-0.44 1,-1l0,-0.6l4.8,0c0.57,0 1.02,-0.45 1.01,-0.99c0,-0.54 -0.44,-0.99 -1.01,-0.99l-4.8,0l0,-2.02l4.8,0c0.57,0 1.02,-0.45 1.01,-0.99c0,-0.54 -0.44,-1 -1.01,-1l-4.8,0l0,-2.01l4.8,0c0.57,0 1.02,-0.44 1.01,-1c0,-0.54 -0.44,-0.99 -1.01,-0.99l-4.8,0l0,-2l4.8,0c0.57,0 1.02,-0.46 1.01,-1c0,-0.54 -0.44,-0.99 -1.01,-0.99l-4.8,0l0,-2.02l4.8,0c0.57,0 1.02,-0.45 1.01,-0.99c0,-0.54 -0.44,-1 -1.01,-1l-4.8,0l0,-2.01l4.8,0zm-28.25,19.6l0,-21.21l21.44,0l0,21.21l-21.44,0zm53.05,9.26c5.87,0 10.64,-4.72 10.63,-10.52l0,-18.58c0,-0.54 -0.44,-0.99 -1.01,-0.99l-1.49,0l0,-8.73c0,-0.54 -0.44,-0.99 -1,-0.99l-14.25,0c-0.55,0 -1.01,0.44 -1.01,0.99l0,8.73l-1.5,0c-0.55,0 -1.01,0.44 -1.01,0.99l0,18.58c0,5.8 4.78,10.52 10.64,10.52zm-8.61,-28.1l1.49,0l14.25,0l1.49,0l0,17.56c0,4.69 -3.86,8.52 -8.62,8.52c-4.74,0 -8.61,-3.81 -8.61,-8.52l0,-17.56zm2.49,-2.01l0,-7.71l12.24,0l0,7.71l-12.24,0zm6.12,24.67c3.43,0 6.22,-2.76 6.21,-6.13c0,-3.38 -2.78,-6.14 -6.21,-6.14c-3.41,0 -6.2,2.75 -6.2,6.14c0,3.37 2.77,6.13 6.2,6.13zm0,-10.28c2.32,0 4.2,1.85 4.19,4.13c0,2.28 -1.88,4.14 -4.19,4.14c-2.3,0 -4.18,-1.86 -4.18,-4.14s1.88,-4.13 4.18,-4.13zm-3.4,-19.24l0,2l2.18,0l0,-2l-2.18,0zm4.63,0l0,2l2.17,0l0,-2l-2.17,0zm-31.17,79.32c0.55,0 1.01,-0.44 1.01,-1l0,-11.43c0,-0.54 -0.45,-0.99 -1.01,-0.99l-0.16,0l0,-4.28l0.16,0c0.55,0 1.01,-0.44 1.01,-1l0,-12.32c0,-0.54 -0.45,-0.99 -1.01,-0.99l-17.81,0c-0.26,0 -0.51,0.1 -0.71,0.29l-6.56,6.49c-0.19,0.18 -0.29,0.44 -0.29,0.7l0,4.26c0,0.54 0.44,0.99 1,0.99l0.46,0l0,0.29l-0.46,0c-0.54,0 -1,0.44 -1,1l0,16.99c0,0.54 0.44,1 1,1l24.37,0zm-23.36,-2.01l0,-14.99l0.46,0c0.54,0 1,-0.44 1,-0.99l0,-2.3c0,-0.54 -0.44,-0.99 -1,-0.99l-0.46,0l0,-2.85l5.97,-5.89l16.37,0l0,10.32l-0.16,0c-0.55,0 -1.01,0.43 -1.01,0.99l0,6.28c0,0.55 0.45,1 1.01,1l0.16,0l0,9.42l-22.34,0zm6.83,-26.2l0,3.86l2.02,0l0,-3.86l-2.02,0zm3.48,0l0,3.86l2.03,0l0,-3.86l-2.03,0zm3.51,0l0,3.86l2.02,0l0,-3.86l-2.02,0zm3.48,0l0,3.86l2.03,0l0,-3.86l-2.03,0zm51.39,27.4c0.56,0 1.02,-0.45 1,-1.01l0,-28.41c0,-0.54 -0.44,-0.99 -1,-0.99l-30.77,0c-0.55,0 -1.01,0.44 -1.01,0.99l0,28.43c0,0.54 0.45,0.99 1.01,0.99l30.77,0zm-29.75,-2l0,-26.41l28.74,0l0,26.41l-28.74,0zm25.33,-13.8c0.56,0 1,-0.45 0.99,-0.99l0,-8.49c0,-0.54 -0.44,-0.99 -1.01,-0.99l-21.91,0c-0.55,0 -1.01,0.43 -1.01,0.99l0,8.49c0,0.54 0.45,0.99 1.01,0.99l21.93,0zm-20.91,-2l0,-6.49l19.9,0l0,6.49l-19.9,0zm1.55,-5.24l0,2l1.88,0l0,1.11l1.7,0l0,-1.11l2.08,0l0,1.11l1.7,0l0,-1.11l2.08,0l0,1.11l1.7,0l0,-1.11l2.09,0l0,1.11l1.69,0l0,-1.11l1.88,0l0,-2l-16.8,0zm19.36,18.93c0.56,0 1,-0.45 0.99,-1l0,-8.49c0,-0.54 -0.44,-0.99 -1.01,-0.99l-21.91,0c-0.55,0 -1.01,0.44 -1.01,0.99l0,8.49c0,0.55 0.45,1 1.01,1l21.93,0zm-20.91,-2l0,-6.49l19.9,0l0,6.49l-19.9,0zm1.55,-5.25l0,2l1.88,0l0,1.11l1.7,0l0,-1.11l2.08,0l0,1.11l1.7,0l0,-1.11l2.08,0l0,1.11l1.7,0l0,-1.11l2.09,0l0,1.11l1.69,0l0,-1.11l1.88,0l0,-2l-16.8,0zm38.42,8.29c3.71,3.67 9.77,3.67 13.48,0l8.02,-7.93c3.49,-3.43 3.71,-8.88 0.68,-12.58l0.76,-0.75c2.78,-2.75 3.07,-7.02 0.91,-10.08c-0.36,-0.53 -1.12,-0.6 -1.56,-0.17c-0.36,0.36 -0.39,0.9 -0.11,1.31c1.62,2.29 1.39,5.48 -0.68,7.52l-0.75,0.75c-3.73,-3 -9.24,-2.77 -12.72,0.67l-8.03,7.94c-3.72,3.66 -3.72,9.64 0,13.32zm20.07,-19.84c2.93,2.89 2.93,7.6 0.02,10.49l-8.03,7.94c-2.92,2.89 -7.7,2.89 -10.62,0c-2.93,-2.9 -2.93,-7.62 0,-10.51l8.01,-7.92c2.92,-2.9 7.7,-2.9 10.62,0zm-5.88,5.81c0.38,0.4 1.03,0.4 1.43,0l1.54,-1.52c0.4,-0.39 0.4,-1.02 0,-1.41c-0.4,-0.4 -1.03,-0.4 -1.43,0l-1.54,1.52c-0.4,0.39 -0.4,1.02 0,1.41z" fill="#B7C7C8" clip-rule="evenodd" fill-rule="evenodd"/>
 </g>
</svg>