<svg width="334" height="346" xmlns="http://www.w3.org/2000/svg" xml:space="preserve" enable-background="new 0 0 1024 512" version="1.1">

 <g>
  <title>Layer 1</title>
  <g id="svg_3">
   <path id="svg_1" d="m167.00001,0.00003c46.12002,0 87.83659,19.35519 118.06216,50.66186c30.22875,31.30667 48.93785,74.54502 48.93785,122.28496c0,47.76963 -18.70909,91.03436 -48.93785,122.31465c-30.22557,31.28028 -71.94214,50.65856 -118.06216,50.65856c-46.11684,0 -87.86206,-19.37828 -118.08763,-50.65856c-30.2001,-31.28028 -48.91237,-74.54502 -48.91237,-122.31465c0,-47.73994 18.71228,-90.9783 48.91237,-122.28496c30.22557,-31.30667 71.97079,-50.66186 118.08763,-50.66186z" fill="#28A5F1"/>
   <polygon id="svg_2" points="62.30743408203125,192.79336720705032 90.546142578125,160.9821794629097 129.20294189453125,202.13629323244095 244.0174560546875,85.5764177441597 271.6671142578125,113.88202077150345 130.0626220703125,261.6661089062691 " fill="#FFFFFF" clip-rule="evenodd" fill-rule="evenodd"/>
  </g>
 </g>
</svg>