<svg width="457" height="452" xmlns="http://www.w3.org/2000/svg" version="1.1" xml:space="preserve">
 <g>
  <title>Layer 1</title>
  <g id="github_x5F_black">
   <g id="svg_1">
    <path class="st0" d="m457.266,228.633c0,-126.271 -102.363,-228.633 -228.633,-228.633s-228.633,102.362 -228.633,228.633c0,100.223 64.492,185.375 154.237,216.244c5.471,-3.947 11.772,-8.818 11.772,-17.024c0,-12.575 -0.272,-44.923 -0.272,-44.923s-9.924,1.69 -24.086,1.69c-35.688,0 -46.972,-22.647 -52.343,-35.323c-6.99,-16.507 -16.054,-24.259 -25.684,-30.456c-5.914,-3.808 -7.273,-8.293 -0.431,-9.577c31.587,-5.915 39.664,35.627 60.76,42.253c15.057,4.721 34.419,2.681 44.049,-3.516c1.269,-12.687 10.469,-23.661 18.127,-29.441c-53.656,-5.126 -85.47,-23.661 -101.965,-53.452l-1.767,-3.335l-4.146,-9.464l-1.224,-3.392c-5.166,-15.121 -7.455,-32.439 -7.455,-51.785c0,-34.343 10.763,-47.3 25.208,-65.61c-11.047,-39.154 3.965,-65.914 3.965,-65.914s23.226,-4.789 67.127,26.478c23.792,-10.141 87.237,-10.986 117.26,-2.253c18.41,-12.112 52.116,-29.295 65.711,-24.484c3.682,5.893 11.613,23.075 4.815,60.821c4.611,8.282 28.607,25.915 28.698,75.773c-0.385,18.388 -2.311,33.915 -5.88,47.041l-1.983,6.715c0,0 -1.133,3.166 -2.368,6.186l-1.45,3.335c-15.918,34.77 -48.57,47.751 -101.331,53.148c17.096,10.704 22.002,24.135 22.002,60.472s-0.487,41.216 -0.374,49.576c0.098,7.387 6.007,12.699 11.321,16.72c90.13,-30.655 154.973,-116.005 154.973,-216.503z" fill="#2C2C2C" id="svg_2"/>
   </g>
  </g>
  <g id="github_x5F_white"/>
  <g id="github_x5F_blue_1_"/>
 </g>

</svg>