<svg width="255" height="254" xmlns="http://www.w3.org/2000/svg" version="1.1" xml:space="preserve">
 <g>
  <title>Layer 1</title>
  <g id="svg_1">
   <path class="st0" d="m128,22.064c34.178,0 38.226,0.13 51.723,0.746c12.48,0.57 19.257,2.655 23.768,4.407c5.974,2.322 10.239,5.096 14.718,9.575s7.253,8.743 9.575,14.718c1.753,4.511 3.838,11.288 4.408,23.768c0.616,13.498 0.746,17.546 0.746,51.723s-0.13,38.226 -0.746,51.723c-0.57,12.48 -2.655,19.257 -4.408,23.768c-2.321,5.974 -5.096,10.239 -9.575,14.718c-4.479,4.479 -8.743,7.253 -14.718,9.575c-4.511,1.753 -11.288,3.838 -23.768,4.408c-13.495,0.616 -17.543,0.746 -51.723,0.746s-38.228,-0.13 -51.723,-0.746c-12.48,-0.57 -19.257,-2.655 -23.768,-4.408c-5.975,-2.322 -10.239,-5.096 -14.718,-9.575c-4.479,-4.479 -7.253,-8.743 -9.575,-14.718c-1.753,-4.511 -3.838,-11.288 -4.408,-23.768c-0.616,-13.498 -0.746,-17.546 -0.746,-51.723s0.13,-38.226 0.746,-51.723c0.57,-12.48 2.655,-19.257 4.408,-23.768c2.321,-5.974 5.096,-10.239 9.575,-14.718s8.743,-7.253 14.718,-9.575c4.51,-1.752 11.288,-3.838 23.767,-4.407c13.498,-0.616 17.546,-0.746 51.724,-0.746m0,-23.064c-34.763,0 -39.122,0.147 -52.774,0.77c-13.625,0.622 -22.929,2.786 -31.071,5.95c-8.417,3.271 -15.555,7.648 -22.671,14.764s-11.493,14.254 -14.764,22.671c-3.164,8.142 -5.328,17.447 -5.95,31.071c-0.623,13.652 -0.77,18.011 -0.77,52.774s0.147,39.122 0.77,52.774c0.622,13.625 2.785,22.929 5.95,31.071c3.271,8.417 7.648,15.555 14.764,22.671c7.116,7.116 14.254,11.493 22.671,14.764c8.142,3.164 17.447,5.328 31.071,5.95c13.652,0.623 18.011,0.77 52.774,0.77s39.122,-0.147 52.774,-0.77c13.625,-0.622 22.929,-2.785 31.071,-5.95c8.417,-3.271 15.555,-7.648 22.671,-14.764c7.116,-7.116 11.493,-14.254 14.764,-22.671c3.164,-8.142 5.328,-17.447 5.95,-31.071c0.623,-13.652 0.77,-18.011 0.77,-52.774s-0.147,-39.122 -0.77,-52.774c-0.622,-13.625 -2.785,-22.929 -5.95,-31.071c-3.271,-8.417 -7.648,-15.555 -14.764,-22.671s-14.254,-11.493 -22.671,-14.764c-8.142,-3.164 -17.447,-5.328 -31.071,-5.95c-13.652,-0.623 -18.011,-0.77 -52.774,-0.77zm0,62.27c-36.301,0 -65.73,29.428 -65.73,65.73s29.428,65.73 65.73,65.73s65.73,-29.428 65.73,-65.73s-29.429,-65.73 -65.73,-65.73zm0,108.397c-23.564,0 -42.667,-19.103 -42.667,-42.667s19.103,-42.667 42.667,-42.667s42.667,19.103 42.667,42.667s-19.103,42.667 -42.667,42.667zm83.686,-110.994c0,8.483 -6.877,15.36 -15.36,15.36s-15.36,-6.877 -15.36,-15.36s6.877,-15.36 15.36,-15.36s15.36,6.877 15.36,15.36z" fill="#2C2C2C" id="svg_2"/>
  </g>
 </g>

</svg>