<svg width="212" height="212" xmlns="http://www.w3.org/2000/svg" xml:space="preserve" version="1.1">

 <g>
  <title>Layer 1</title>
  <path fill="#2C2C2C" d="m167.83333,0l-123.66667,0c-24.38883,0 -44.16667,19.77783 -44.16667,44.16666l0,123.66666c0,24.38883 19.77783,44.16666 44.16667,44.16666l123.66667,0c24.39767,0 44.16667,-19.77783 44.16667,-44.16666l0,-123.66666c0,-24.38883 -19.769,-44.16666 -44.16667,-44.16666zm-97.16667,167.83332l-26.5,0l0,-97.16666l26.5,0l0,97.16666zm-13.25,-108.36732c-8.533,0 -15.45833,-6.97833 -15.45833,-15.582c0,-8.60367 6.92533,-15.582 15.45833,-15.582s15.45833,6.97833 15.45833,15.582c0,8.60367 -6.9165,15.582 -15.45833,15.582zm119.25,108.36732l-26.5,0c0,0 0,-35.934 0,-49.502c0,-29.7595 -35.33333,-27.507 -35.33333,0c0,14.51317 0,49.502 0,49.502l-26.5,0l0,-97.16666l26.5,0l0,15.59083c12.33133,-22.843 61.83333,-24.53016 61.83333,21.87133c0,25.23683 0,59.70449 0,59.70449z" class="st0" id="linkedin-3"/>
 </g>
</svg>